<svg xmlns="http://www.w3.org/2000/svg" xmlns:xlink="http://www.w3.org/1999/xlink" viewBox="0,0,256,256" width="150px" height="150px" fill-rule="evenodd"><g fill="#ffffff" fill-rule="evenodd" stroke="none" stroke-width="1" stroke-linecap="butt" stroke-linejoin="miter" stroke-miterlimit="10" stroke-dasharray="" stroke-dashoffset="0" font-family="none" font-weight="none" font-size="none" text-anchor="none" style="mix-blend-mode: normal"><g transform="scale(5.12,5.12)"><path d="M0,14v22h5v-9h3v9h5v-22h-5v8h-3v-8zM15,14v22h8.375c3.15551,0 5.75674,-2.34055 6.18164,-5.37891c1.91942,3.21764 5.42462,5.37891 9.44336,5.37891c6.075,0 11,-4.925 11,-11c0,-6.075 -4.925,-11 -11,-11c-4.01874,0 -7.52394,2.16127 -9.44336,5.37891c-0.4249,-3.03836 -3.02613,-5.37891 -6.18164,-5.37891zM20,19h3c1.105,0 2,0.895 2,2c0,1.105 -0.895,2 -2,2h-3zM39,19c3.314,0 6,2.686 6,6c0,3.314 -2.686,6 -6,6c-3.314,0 -6,-2.686 -6,-6c0,-3.314 2.686,-6 6,-6zM39,21c-2.20914,0 -4,1.79086 -4,4c0,2.20914 1.79086,4 4,4c2.20914,0 4,-1.79086 4,-4c0,-2.20914 -1.79086,-4 -4,-4zM28,23.75c-0.117,0.507 -0.136,1.995 0,2.5c-0.381,-0.578 -0.96875,-1 -1.96875,-1.25c1,-0.25 1.63375,-0.84 1.96875,-1.25zM20,27.75h3c1.105,0 2,0.895 2,2c0,1.105 -0.895,2 -2,2h-3z"></path></g></g></svg>