<?xml version="1.0" encoding="UTF-8" standalone="no"?>
<svg
   xmlns:dc="http://purl.org/dc/elements/1.1/"
   xmlns:cc="http://creativecommons.org/ns#"
   xmlns:rdf="http://www.w3.org/1999/02/22-rdf-syntax-ns#"
   xmlns:svg="http://www.w3.org/2000/svg"
   xmlns="http://www.w3.org/2000/svg"
   xmlns:sodipodi="http://sodipodi.sourceforge.net/DTD/sodipodi-0.dtd"
   xmlns:inkscape="http://www.inkscape.org/namespaces/inkscape"
   viewBox="0 0 700 700"
   version="1.1"
   id="svg10"
   sodipodi:docname="paramount-plus-logo.svg"
   width="700"
   height="700"
   inkscape:export-filename="C:\Users\alex\sites\paramount-plus-logo-0.png"
   inkscape:export-xdpi="561.73712"
   inkscape:export-ydpi="561.73712"
   inkscape:version="0.92.3 (2405546, 2018-03-11)">
  <metadata
     id="metadata16">
    <rdf:RDF>
      <cc:Work
         rdf:about="">
        <dc:format>image/svg+xml</dc:format>
        <dc:type
           rdf:resource="http://purl.org/dc/dcmitype/StillImage" />
        <dc:title>Paramount+ Home</dc:title>
      </cc:Work>
    </rdf:RDF>
  </metadata>
  <defs
     id="defs14" />
  <sodipodi:namedview
     pagecolor="#ffffff"
     bordercolor="#666666"
     borderopacity="1"
     objecttolerance="10"
     gridtolerance="10"
     guidetolerance="10"
     inkscape:pageopacity="0"
     inkscape:pageshadow="2"
     inkscape:window-width="1600"
     inkscape:window-height="838"
     id="namedview12"
     showgrid="false"
     inkscape:zoom="0.33781646"
     inkscape:cx="776.22688"
     inkscape:cy="538.69944"
     inkscape:window-x="-8"
     inkscape:window-y="-8"
     inkscape:window-maximized="1"
     inkscape:current-layer="svg10" />
  <title
     id="title2">Paramount+ Home</title>
  <g
     id="app-logo--ios"
     style="fill:#0064ff;fill-opacity:1;fill-rule:evenodd;stroke:none;stroke-width:1"
     transform="matrix(3.8591297,0,0,3.8591297,52.795672,786.58331)"
     inkscape:export-filename="C:\Users\alex\sites\paramount-plus-logo-4.png"
     inkscape:export-xdpi="111.10513"
     inkscape:export-ydpi="111.10513">
    <g
       id="iPhone-App-3x"
       transform="translate(-11,-72)"
       style="fill:#0064ff;fill-opacity:1">
      <g
         id="Group"
         transform="translate(11.52,72)"
         style="fill:#0064ff;fill-opacity:1">
        <path
           d="M 40.06454,9.1893373 C 40.06454,2.9864366 33.479388,0 25.655642,0 17.286733,0 9.6081141,3.7041697 6.7896094,9.4474075 6.0127138,10.969943 5.6101264,12.664656 5.6101264,14.387216 c -0.028476,1.493708 0.3743081,2.958394 1.179483,4.192855 1.2075659,1.780998 3.3644526,2.901133 6.5282006,2.901133 3.88271,0 6.960246,-2.125746 6.960246,-5.830111 0,0 0.05695,-1.033065 -1.150419,-1.033065 -0.977992,0 -1.237219,0.688514 -1.208155,1.033065 0.144343,2.90074 -1.581481,5.227097 -4.659016,5.227097 -3.4514509,0 -4.8897682,-2.929371 -4.8897682,-6.059354 0,-6.4048858 4.8318352,-10.6551994 9.8647662,-12.4928708 2.35877,-0.8901067 4.832031,-1.3211388 7.362833,-1.292704 5.694354,0 10.353764,2.1830069 10.353764,8.0417487 0,4.8815661 -4.112873,9.0455941 -9.030527,9.4193651 L 27.122827,17.8341 c 1.006862,-3.590039 2.2431,-7.524236 4.256037,-10.4249762 0.115277,-0.1733541 0.316767,-0.459859 0.546733,-0.7467562 L 31.638484,6.3176204 C 31.206242,6.5756905 30.804244,6.8635682 30.400871,7.1790962 20.968149,14.531154 20.680447,35.208144 8.1122563,35.208144 c -0.4308667,0 -0.8627154,-0.02843 -1.2941712,-0.08609 -2.6174075,-0.431032 -3.9979877,-2.182811 -3.9979877,-4.623299 0,-0.487902 0.1726216,-1.148766 0.1726216,-1.521752 C 3.022177,28.287705 2.4465748,27.684692 1.7560882,27.684692 H 1.6127278 c -1.12154961,0 -1.58167758,0.889126 -1.61074243,2.153787 -0.08581986,3.647104 2.61740743,5.771673 6.78762403,6.174662 0.4599315,0.02824 0.9202559,0.05667 1.409056,0.05667 9.8066366,0 15.8175616,-7.409124 18.3774286,-16.398241 1.294171,-0.142959 2.588932,-0.431228 3.824777,-0.80343 4.544328,-1.264857 9.663669,-4.307575 9.663669,-9.6788077"
           id="Fill-33"
           inkscape:connector-curvature="0"
           style="fill:#0064ff;fill-opacity:1" />
        <path
           d="m 95.082157,18.408619 c -0.08582,1.866303 -1.725234,6.374686 -3.651958,9.07501 -0.776503,1.091112 -1.438318,1.407032 -2.013527,1.407032 -0.805567,0 -1.035729,-0.66106 -0.920059,-1.637255 0.172032,-1.694125 1.581677,-5.657346 3.537074,-8.385516 0.891387,-1.23505 1.49625,-1.752171 2.186541,-1.752171 0.689308,0 0.891387,0.574579 0.861929,1.2929 z m -38.193213,9.505258 c -0.488604,0 -0.833651,-0.172178 -0.862127,-0.804018 0.02848,-1.694713 1.437532,-4.709781 3.19242,-7.122423 1.235846,-1.665886 2.846785,-2.900544 4.572412,-2.900544 l -2.186148,4.882154 c -1.667105,3.762608 -3.364453,5.944831 -4.716557,5.944831 z m -21.512112,0 c -0.488604,0 -0.834043,-0.172178 -0.834043,-0.804018 0.02848,-1.694713 1.437531,-4.709781 3.192812,-7.122423 1.236435,-1.665886 2.846784,-2.900544 4.572412,-2.900544 l -2.186148,4.882154 c -1.639218,3.676912 -3.42219,5.944831 -4.745033,5.944831 z M 133.47721,11.343262 h -3.45105 l -0.7771,1.809237 -1.35151,3.04409 H 126.287 l -0.4888,1.034242 h 1.66809 l -2.01353,4.451318 c -1.43733,3.13018 -3.68063,6.203293 -4.97519,6.203293 -0.2877,0 -0.46013,-0.114719 -0.46013,-0.401813 0,-0.288073 0.0862,-0.54634 0.40239,-1.349966 0.40279,-0.947368 1.0644,-2.326749 1.5534,-3.331183 0.71896,-1.46449 1.86958,-3.733193 1.86958,-4.853327 0,-1.120331 -0.71877,-2.01083 -2.1292,-2.01083 -1.58168,0 -3.01941,0.947957 -4.34244,2.325965 l 0.8633,-2.067699 h -3.25035 l -2.6453,6.03092 c -1.0644,2.125353 -3.22109,5.657933 -4.5728,5.657933 -0.28751,0 -0.40337,-0.172766 -0.40337,-0.459663 0.0291,-0.258266 0.0866,-0.48849 0.20168,-0.746952 0.11528,-0.258659 1.69696,-3.962828 1.69696,-3.962828 l 2.87644,-6.576867 h -3.50959 l -2.78904,6.404101 c -0.86272,1.982002 -3.04926,5.342209 -4.45851,5.342209 -0.22977,0.02843 -0.45993,-0.143743 -0.48841,-0.401813 v -0.115504 c 0,-0.343963 0.25864,-0.976391 0.45993,-1.435858 l 1.46719,-3.216268 3.0198,-6.576867 h -3.47993 l -0.69068,1.493708 c -0.51767,1.004827 -1.37999,2.182026 -2.76077,2.182026 -0.661814,0 -0.977993,-0.257678 -1.121353,-0.516728 -0.201687,-2.211246 -1.611136,-3.388642 -3.681417,-3.388642 -2.875849,0 -4.918636,1.694321 -6.270348,3.762412 -0.890995,1.435663 -1.581678,2.957414 -2.070478,4.565842 -1.23722,2.039264 -2.530645,3.619453 -3.565982,3.619453 -0.25903,0 -0.432241,-0.144527 -0.432241,-0.489078 0,-0.343963 0.345832,-1.119546 0.460717,-1.40762 l 2.272007,-4.824304 c 0.632946,-1.492728 1.064009,-2.469119 1.064009,-3.445903 0,-1.034242 -0.718569,-1.780802 -1.897699,-1.780802 -1.639414,0 -3.422779,0.948349 -4.831835,2.499123 0.05754,-0.258658 0.05754,-0.488882 0.05754,-0.747344 0,-1.148569 -0.575209,-1.751779 -1.754692,-1.751779 -1.495269,0 -3.048274,0.891087 -4.45733,2.499123 l 0.920452,-2.241053 h -3.164337 l -2.674162,6.031116 c -1.265303,2.843478 -3.307305,5.658521 -4.458116,5.658521 -0.258441,0 -0.43126,-0.144527 -0.43126,-0.489078 0,-0.545163 0.603882,-1.895129 0.834044,-2.440685 l 3.537663,-8.012137 c 0.259031,-0.602621 -1.438317,-0.97698 -3.5954,-0.97698 -2.214231,0 -4.486592,1.091896 -6.154089,2.498731 -1.179287,0.976 -2.042002,1.464686 -2.474047,1.464686 -0.229377,0 -0.315982,-0.115112 -0.315982,-0.258267 0,-0.48849 1.179286,-1.867479 1.179286,-2.929567 0,-0.487901 -0.258441,-0.80441 -0.920845,-0.80441 -1.264713,0 -2.760964,1.206223 -3.853645,2.469512 l 0.920452,-2.211442 h -3.106011 l -2.674162,6.031116 c -1.265696,2.843478 -3.365435,5.801872 -4.51546,5.801872 -0.25962,0 -0.43126,-0.143351 -0.43126,-0.488686 0,-0.545556 0.575406,-1.86591 0.891388,-2.556189 l 3.53786,-8.040376 c 0.258441,-0.602621 -1.438514,-0.97698 -3.595597,-0.97698 -3.19242,0 -6.298431,2.15418 -7.937846,4.365622 -1.81184,2.383031 -3.048078,4.910589 -3.077825,6.978484 -0.02779,1.66569 0.834922,2.699343 2.560157,2.699343 1.926921,0 3.480319,-1.521751 4.371314,-2.670909 -0.05735,0.230028 -0.08602,0.45986 -0.114492,0.689691 0,1.148177 0.460128,1.981218 1.869184,1.981218 1.236434,0 2.875849,-1.033653 4.199085,-2.670909 l -1.064009,2.44147 h 3.364256 l 3.307697,-7.495213 c 1.093467,-2.442254 2.329901,-3.70515 2.674163,-3.70515 0.115866,0 0.173407,0.05765 0.173407,0.14335 0,0.258855 -0.517669,0.948153 -0.517669,1.579602 0,0.63184 0.344262,1.119742 1.265696,1.119742 0.718766,0 1.523548,-0.344747 2.242903,-0.804607 -1.696759,2.298119 -2.847373,4.710173 -2.847373,6.692372 -0.02828,1.66569 0.834632,2.699343 2.559867,2.699343 1.811447,0 3.508402,-1.723148 4.428854,-2.871913 -0.02906,0.258266 -0.05754,0.517121 -0.05754,0.804018 0,1.120723 0.632945,2.067895 1.927117,2.067895 1.437335,0 2.588146,-0.890695 4.026267,-2.641689 l -1.064009,2.41225 h 3.451254 l 3.163355,-7.151446 c 1.380777,-3.101352 3.249568,-4.767631 4.170021,-4.767631 0.230358,-0.02902 0.431455,0.144135 0.460128,0.374359 v 0.0857 c -0.02867,0.344355 -0.143164,0.689298 -0.287507,1.004826 l -4.544132,10.48263 h 3.537664 l 3.221288,-7.294797 c 1.379795,-3.130179 2.904521,-4.652715 4.054743,-4.652715 0.345047,0 0.489389,0.173158 0.489389,0.545752 -0.02907,0.402009 -0.144342,0.804998 -0.316375,1.149746 l -3.1066,6.604909 c -0.287506,0.631841 -0.459735,1.320551 -0.517472,2.009849 0,1.005219 0.545948,1.895914 2.099542,1.895914 2.013527,0 3.537467,-1.522143 5.262741,-3.790847 v 0.487902 c 0.144342,1.809236 1.150615,3.388642 3.825563,3.388642 3.163158,0 5.723418,-2.182223 7.275638,-5.656561 0.576191,-1.235639 0.978189,-2.52795 1.122532,-3.878505 0.345046,0.173355 0.747045,0.259443 1.121353,0.231009 0.517668,0 1.034748,-0.115112 1.495271,-0.373771 l -0.546736,1.1772 c -0.632946,1.321335 -1.322843,2.786021 -1.869184,4.021463 -0.345047,0.717341 -0.545948,1.521555 -0.603881,2.325181 0,1.234658 0.690683,2.125745 2.099739,2.125745 1.409252,0 3.336372,-1.321335 4.716752,-3.187833 h 0.0287 c -0.0862,0.373378 -0.14434,0.775191 -0.14434,1.1772 0,1.034045 0.31697,2.010633 1.75509,2.010633 1.66789,0 2.96167,-1.206223 4.22736,-2.728759 l -1.06401,2.412643 h 3.47973 l 2.78983,-6.318209 c 1.58168,-3.560819 3.16356,-5.714607 4.63035,-5.714607 0.25903,0 0.46013,0.171785 0.48919,0.43064 v 0.0857 c 0,0.603602 -0.86311,2.240269 -1.63922,3.877132 -0.71955,1.493709 -1.26608,2.641885 -1.63941,3.532973 -0.34603,0.746364 -0.54673,1.550774 -0.60427,2.383619 0,1.090719 0.60427,1.92376 1.95618,1.92376 2.01274,0 4.05474,-1.952783 5.14742,-3.418057 -0.25883,0.718714 -0.37391,1.436839 -0.40239,2.182419 0,2.011025 1.20796,3.016244 2.90393,3.016244 1.12234,0 2.21463,-0.373378 3.13527,-1.033458 1.32324,-0.919522 2.38725,-2.297922 3.27923,-3.561407 l -0.60408,-0.574971 c -0.83424,1.178181 -1.75469,2.298119 -2.70362,2.987417 -0.51747,0.431228 -1.12135,0.660275 -1.78337,0.689298 -0.71856,0 -1.17909,-0.37377 -1.17909,-1.291919 0,-0.919326 0.43146,-2.154376 1.09328,-3.820458 0.0285,-0.02804 0.97701,-2.153788 1.86918,-4.192268 0.74763,-1.724324 1.49527,-3.389034 1.63922,-3.733781 h 2.27196 l 0.46072,-1.034242 h -2.24369 z"
           id="Fill-34"
           inkscape:connector-curvature="0"
           style="fill:#0064ff;fill-opacity:1" />
        <polygon
           id="Fill-35"
           points="155.40016,19.259545 156.72772,16.196433 148.76022,16.196433 151.92632,8.8920272 148.17735,8.8920272 145.01066,16.196433 137.04159,16.196433 135.71403,19.259545 143.68271,19.259545 140.51621,26.563754 144.26538,26.563754 147.43188,19.259545 "
           style="fill:#0064ff;fill-opacity:1" />
      </g>
    </g>
  </g>
  <path
     inkscape:connector-curvature="0"
     style="fill:#0064ff;fill-opacity:1;stroke-width:0.57341379"
     d="m 318.74059,355.06268 c -1.41,-0.58489 -3.7214,-3.17844 0.1239,-10.40059 l 8.9326,-18.66921 c 0.2712,-0.56423 -0.3807,-1.27067 -0.7878,-0.79131 l -7.8105,7.85292 c -3.6957,3.85734 -9.9648,14.69945 -11.1787,16.70583 l -9.4889,15.68573 c 0.7048,-0.0224 1.2948,0.53154 1.3172,1.23628 0.01,0.23224 -0.049,0.4616 -0.1623,0.66459 l -8.6729,14.567 c -2.1176,3.61251 1.687,6.13782 2.2025,5.30636 13.6317,-21.95659 21.5603,-20.20366 21.5603,-20.20366 l 4.5507,-10.53762 c 0.2396,-0.52812 0.01,-1.15027 -0.5224,-1.38996 -0.02,-0.01 -0.041,-0.0177 -0.064,-0.0264 z m 30.9919,-183.45573 c -77.9384,0 -141.1194,63.15007 -141.1194,141.05006 -0.041,30.1564 9.6333,59.52436 27.5898,83.75167 5.9199,-2.55513 9.2096,-6.37465 11.5594,-9.29962 l 26.2756,-33.58829 c 0.5533,-0.70816 1.2758,-1.26495 2.1015,-1.61989 l 3.9554,-1.70133 43.2039,-54.77478 6.2645,-4.90212 12.8732,-17.90943 c 0.3326,-0.46332 0.738,-0.87101 1.2007,-1.20646 l 5.6166,-4.08098 c 1.3877,-1.00807 3.2616,-1.02413 4.6653,-0.039 l 6.8156,4.7817 c 3.6159,2.53621 6.5467,5.92796 8.5324,9.87247 l 27.3002,47.92937 c 0.4456,0.9146 1.203,1.63996 2.1354,2.04594 5.354,2.66408 8.6247,3.13485 15.6318,10.7429 3.2697,3.54714 17.597,19.56316 37.6762,44.45448 2.9181,3.99326 6.8248,7.15851 11.3358,9.18609 17.902,-24.20896 27.5434,-53.53334 27.5009,-83.64272 0,-77.90057 -63.1781,-141.05006 -141.1148,-141.05006 z m -103.062,148.82441 -9.1499,-2.9703 -5.6522,7.7755 v -9.60928 l -9.1505,-2.97085 9.1505,-2.97086 v -9.61213 l 5.6522,7.77721 9.1499,-2.97028 -5.6532,7.77664 z m -2.1692,31.45117 -2.972,9.14193 -2.972,-9.14193 h -9.6167 l 7.7795,-5.65043 -2.9714,-9.14136 7.78,5.65042 7.7807,-5.65042 -2.972,9.14136 7.7806,5.65043 z m 1.8367,-72.80636 2.972,9.14136 -7.7807,-5.65042 -7.7801,5.65042 2.9715,-9.14136 -7.7795,-5.65042 h 9.6167 l 2.972,-9.14136 2.9726,9.14136 h 9.6167 z m 15.4426,-20.67902 -5.6493,-7.77721 -9.15,2.97027 5.6527,-7.77606 -5.6527,-7.77664 9.15,2.97028 5.6527,-7.77663 v 9.61271 l 9.15,2.96511 -9.15,2.97144 v 9.61214 z m 24.0507,-33.65136 -2.972,9.14193 -2.972,-9.14137 h -9.6173 l 7.7806,-5.65042 -2.9714,-9.14193 7.7801,5.64927 7.7795,-5.65042 -2.9715,9.14939 7.7807,5.65042 h -9.6173 v -0.007 z m 30.3066,-15.43516 -5.6527,7.7772 V 207.478 l -9.1506,-2.97029 9.1506,-2.97143 v -9.61214 l 5.6527,7.77722 9.146,-2.97028 -5.6528,7.77663 5.6533,7.77607 z m 38.4032,-8.81108 2.9721,9.14136 -7.7807,-5.65042 -7.7807,5.65042 2.9686,-9.13735 -7.7795,-5.65042 h 9.6167 l 2.9732,-9.14136 2.972,9.14136 h 9.6167 z m 34.4353,6.97845 v 9.61213 l -5.6505,-7.77721 -9.1493,2.97086 5.6527,-7.77607 -5.6522,-7.77663 9.15,2.97028 5.6504,-7.77722 v 9.61214 l 9.15,2.97143 z m 63.8141,97.40237 9.1493,2.97028 5.651,-7.77721 v 9.61213 l 9.1506,2.97086 -9.1506,2.97085 v 9.61157 l -5.651,-7.77607 -9.1493,2.97029 5.659,-7.77664 z m -36.1859,-70.99036 -2.9737,-9.14194 h -9.6162 l 7.7778,-5.65041 -2.9651,-9.14252 7.7772,5.65042 7.7772,-5.64926 -2.9657,9.14136 7.7784,5.65041 h -9.6168 z m 21.0793,24.50943 v -9.61157 l -9.15,-2.97143 9.15,-2.96512 v -9.61672 l 5.6504,7.77663 9.1499,-2.97027 -5.6504,7.77663 5.6504,7.77607 -9.1499,-2.97029 z m 17.2746,15.02918 2.9749,-9.14137 2.9737,9.14137 h 9.6162 l -7.7772,5.65042 2.9737,9.14136 -7.7853,-5.65042 -7.7777,5.65042 2.9737,-9.14136 -7.7858,-5.65042 z m 5.948,78.45391 -2.9737,9.14193 -2.9748,-9.14193 h -9.6162 l 7.7858,-5.65043 -2.9737,-9.14136 7.7778,5.65042 7.7852,-5.65042 -2.9737,9.14136 7.7772,5.65043 z m -60.0599,42.29041 c 0.6778,-0.98513 1.7793,-3.68705 -0.2884,-8.69411 l -6.2445,-16.78554 c -0.8475,-2.14285 1.0086,-3.44278 2.2541,-2.0339 0,0 11.802,13.60253 14.852,19.28219 l 5.8201,9.65802 c 5.0071,0.3234 18.8252,0.70014 32.1267,0.70014 -1.3395,-1.32976 -2.5764,-2.7587 -3.7025,-4.27424 -22.6975,-28.12766 -37.0925,-43.77441 -37.2364,-43.92923 -4.5999,-4.99845 -6.7261,-5.95892 -10.2349,-7.55645 -0.508,-0.23051 -1.059,-0.47937 -1.6261,-0.74945 v 4.27022 c 0.035,0.28843 -0.1715,0.55047 -0.4605,0.58487 -0.2334,0.0275 -0.4576,-0.10321 -0.5476,-0.32053 l -33.3698,-58.59372 -0.093,-0.18521 c -1.3917,-2.75984 -3.4428,-5.13378 -5.9716,-6.91079 l -3.2552,-2.28734 -15.9197,36.71053 c 1.902,-5.8e-4 3.4451,1.54076 3.4462,3.44277 6e-4,0.47077 -0.096,0.93696 -0.2833,1.36931 l -14.7086,34.01032 h 13.5016 c 5.2181,0 10.3868,1.01553 15.2161,2.99322 l 3.5586,1.45819 c 0,0 -10.7372,22.0816 -10.7372,33.70871 0.015,2.11475 0.3108,4.21745 0.8768,6.2548 h 24.7503 l -1.1463,-6.96985 c 9.709,2.16751 19.5316,3.78682 29.4224,4.85051 v -0.004 z m -190.9749,35.77988 c 0,-22.71522 -24.0931,-33.65308 -52.7168,-33.65308 -30.6191,0 -58.713002,13.56524 -69.024702,34.59921 -2.8458,5.60397 -4.3247,11.80315 -4.3167,18.08891 -0.1301,5.43539 1.374,10.78419 4.3167,15.35487 4.4182,6.52373 12.308902,10.62421 23.883902,10.62421 14.2069,0 25.4658,-7.78466 25.4658,-21.35049 0,0 0.2088,-3.78338 -4.2094,-3.78338 -3.5775,0 -4.5259,2.52244 -4.4199,3.78338 0.5287,10.62249 -5.7869,19.14228 -17.0464,19.14228 -12.623202,0 -17.888802,-10.72743 -17.888802,-22.18997 0,-23.45377 17.677802,-39.02081 36.091802,-45.7504 8.6052,-3.24953 17.7437,-4.85681 26.9419,-4.73582 20.8338,0 37.8802,7.99453 37.8802,29.45111 0,17.87618 -15.0463,33.12669 -33.0418,34.49485 l 0.7363,-2.41808 c 3.6842,-13.14781 8.2084,-27.55484 15.5722,-38.1779 0.4237,-0.63476 1.1583,-1.68354 2.0006,-2.73403 l -1.051,-1.26323 c -1.5746,0.9553 -3.0867,2.00866 -4.5283,3.15434 -34.5098,26.92523 -35.558,102.64739 -81.544602,102.64739 -1.5838,0 -3.1647,-0.10609 -4.7341,-0.31596 -9.5737,-1.57688 -14.6278,-7.99396 -14.6278,-16.92946 0,-1.78791 0.6325,-4.20829 0.6325,-5.57358 0.073,-2.54023 -1.9273,-4.65784 -4.4675,-4.73182 -0.02,-5.7e-4 -0.039,-5.7e-4 -0.058,-5.7e-4 h -0.5247 c -4.1028,0 -5.7869,3.25584 -5.8924,7.88673 -0.3142,13.3571 9.5737,21.13718 24.834,22.612 1.6818,0.10437 3.3659,0.20872 5.155,0.20872 35.879102,0 57.870602,-27.13395 67.236802,-60.05306 4.7438,-0.55621 9.4275,-1.54077 13.993,-2.94218 16.629,-4.63318 35.3521,-15.77577 35.3521,-35.44499 z m 341.7724,7.88672 h -12.6317 l -2.8378,6.62695 -4.948,11.14773 h -5.8884 l -1.7965,3.78684 h 6.108 l -7.3701,16.30215 c -5.253,11.46311 -13.4632,22.71694 -18.199,22.71694 -1.0505,0 -1.6858,-0.42319 -1.6858,-1.47081 0,-1.04763 0.3136,-2.00122 1.4742,-4.94455 1.4743,-3.47316 3.8969,-8.51978 5.6848,-12.19995 2.6263,-5.36314 6.8374,-13.67191 6.8374,-17.77354 0,-4.1022 -2.6268,-7.36321 -7.7864,-7.36321 -5.7863,0 -11.0479,3.47432 -15.8939,8.51749 l 3.1601,-7.57136 h -11.8863 l -9.6844,22.08619 c -3.8888,7.78294 -11.7853,20.71916 -16.7333,20.71916 -1.0505,0 -1.4743,-0.63247 -1.4743,-1.68297 0.1027,-0.94441 0.351,-1.86761 0.7375,-2.73576 0.4231,-0.94612 6.21,-14.51252 6.21,-14.51252 l 10.5227,-24.08454 h -12.8353 l -10.2096,23.45148 c -3.1515,7.25828 -11.1489,19.56316 -16.309,19.56316 -0.8986,0.0878 -1.6996,-0.56883 -1.7874,-1.46965 0,0 0,0 0,-0.002 v -0.42318 c 0,-1.26036 0.949,-3.57581 1.6864,-5.25935 l 5.3632,-11.77677 11.0474,-24.08453 h -12.7252 l -2.5334,5.46865 c -1.8888,3.68017 -5.0494,7.99224 -10.0984,7.99224 -2.4226,0 -3.5752,-0.94385 -4.1004,-1.89227 -0.7369,-8.09833 -5.8965,-12.41097 -13.4712,-12.41097 -10.5228,0 -17.9943,6.20491 -22.9429,13.77856 -3.2415,5.21979 -5.788,10.84039 -7.5725,16.7196 -4.526,7.46929 -9.2583,13.25503 -13.0475,13.25503 -0.9478,0 -1.5803,-0.52868 -1.5803,-1.78905 0,-1.26208 1.2638,-4.10048 1.6847,-5.15613 l 8.3128,-17.66745 c 2.3148,-5.46636 3.8969,-9.04274 3.8969,-12.6197 0,-3.78682 -2.6262,-6.52315 -6.9475,-6.52315 -5.9979,0 -12.5233,3.47316 -17.6783,9.14996 0.1749,-0.90083 0.2448,-1.81944 0.2098,-2.73576 0,-4.20771 -2.1027,-6.41707 -6.4193,-6.41707 -5.4698,0 -11.1512,3.26387 -16.3068,9.15054 l 3.3677,-8.20728 h -11.5767 l -9.7836,22.09249 c -4.6291,10.4132 -12.1001,20.7226 -16.3107,20.7226 -0.9456,0 -1.5775,-0.52982 -1.5775,-1.79019 0,-1.9972 2.21,-6.9406 3.0506,-8.93952 l 12.9437,-29.34159 c 0.9467,-2.20764 -5.2628,-3.57696 -13.1542,-3.57696 -8.1017,0 -16.4151,3.99842 -22.5162,9.14997 -4.3138,3.57409 -7.471,5.36371 -9.0525,5.36371 -0.5155,0.1101 -1.0235,-0.21847 -1.1348,-0.7334 -0.015,-0.0699 -0.022,-0.14105 -0.021,-0.21216 0,-1.78848 4.3138,-6.8391 4.3138,-10.72914 0,-1.78734 -0.9455,-2.94563 -3.3688,-2.94563 -4.6269,0 -10.1012,4.41815 -14.0991,9.04388 l 3.3677,-8.09931 h -11.3622 l -9.7842,22.08789 c -4.6309,10.41319 -12.3123,21.24727 -16.5212,21.24727 -0.9478,0 -1.5763,-0.52467 -1.5763,-1.78905 0,-1.99777 2.1044,-6.83336 3.261,-9.36041 l 12.9431,-29.44651 c 0.9467,-2.20765 -5.2622,-3.57696 -13.1552,-3.57696 -11.6799,0 -23.045,7.88788 -29.0417,15.98678 -6.6281,8.72621 -11.1512,17.98283 -11.2579,25.55648 -0.1032,6.0994 3.0494,9.88508 9.3645,9.88508 7.0507,0 12.7343,-5.57301 15.9942,-9.78129 -0.1933,0.83259 -0.3349,1.67551 -0.4238,2.52531 0,4.20428 1.6842,7.25541 6.8391,7.25541 4.5237,0 10.5222,-3.78625 15.3629,-9.78129 l -3.898,8.94067 h 12.3095 l 12.1018,-27.45047 c 4.0076,-8.9378 8.5324,-13.56354 9.7905,-13.56354 0.2896,-0.0556 0.5694,0.13361 0.6256,0.42318 0.01,0.0333 0.01,0.0677 0.01,0.10207 0,0.94728 -1.8928,3.47431 -1.8928,5.78403 0,2.31028 1.2586,4.10048 4.6309,4.10048 2.6262,0 5.5741,-1.26266 8.2055,-2.94735 -6.2078,8.41714 -10.4206,17.25059 -10.4206,24.50943 -0.1038,6.09998 3.0494,9.88508 9.3655,9.88508 6.6276,0 12.8359,-6.31042 16.203,-10.51755 -0.1267,0.97709 -0.1967,1.95993 -0.2099,2.94448 0,4.10391 2.316,7.57307 7.0501,7.57307 5.2594,0 9.47,-3.26215 14.731,-9.67463 l -3.8969,8.83401 h 12.6243 l 11.5732,-26.18896 c 5.0512,-11.35875 11.8892,-17.46103 15.2568,-17.46103 0.8412,-0.0865 1.5953,0.52468 1.683,1.36702 0,0.002 0,0.004 6e-4,0.005 v 0.31309 c -0.1388,1.27756 -0.4949,2.52244 -1.0517,3.68017 l -16.61,38.38894 h 12.9428 l 11.786,-26.71535 c 5.0477,-11.46197 10.627,-17.039 14.8353,-17.039 1.2621,0 1.7902,0.63536 1.7902,1.99893 -0.1124,1.4645 -0.5057,2.89401 -1.1577,4.21172 l -11.3656,24.18717 c -1.0465,2.32807 -1.687,4.81668 -1.8946,7.36035 0,3.68188 1.9983,6.94748 7.6832,6.94748 7.3706,0 12.9425,-5.57416 19.2535,-13.88236 v 1.78676 c 0.5281,6.6258 4.21,12.4104 13.9947,12.4104 11.5738,0 20.9434,-7.99339 26.6202,-20.71629 2.1468,-4.47321 3.5362,-9.27383 4.1085,-14.20347 1.2672,0.6428 2.6836,0.93467 4.1005,0.84751 1.9123,0.0212 3.7965,-0.45013 5.4732,-1.36932 l -1.9989,4.31036 c -2.3218,4.83904 -4.8465,10.20333 -6.8374,14.7287 -1.2609,2.67555 -2.0115,5.56327 -2.2105,8.5152 0,4.5208 2.5242,7.7841 7.6757,7.7841 5.1515,0 12.2086,-4.83847 17.2586,-11.67413 h 0.1095 c -0.3383,1.41346 -0.5166,2.85846 -0.5338,4.31092 0,3.78739 1.1606,7.36377 6.4216,7.36377 6.1086,0 10.8364,-4.41814 15.4702,-9.99344 l -3.8969,8.83573 h 12.7332 l 10.21,-23.13783 c 5.7869,-13.04115 11.5732,-20.92731 16.9352,-20.92731 0.9215,-0.0326 1.7094,0.65829 1.7965,1.57689 v 0.31079 c 0,2.21051 -3.1601,8.20556 -5.9985,14.19945 -2.6348,5.46922 -4.6343,9.67406 -5.9984,12.93794 -1.2661,2.74894 -2.015,5.70661 -2.2106,8.72678 0,3.9944 2.2106,7.04553 7.1591,7.04553 7.3621,0 14.8348,-7.15161 18.8252,-12.51647 -0.9003,2.57175 -1.3951,5.26737 -1.4662,7.99109 0,7.3655 4.4135,11.04567 10.6236,11.04567 4.1263,-0.0315 8.1373,-1.35497 11.4717,-3.78453 4.8379,-3.36709 8.7354,-8.41427 11.997,-13.04172 l -2.2105,-2.10558 c -3.05,4.31322 -6.4217,8.416 -9.896,10.94017 -1.8309,1.54764 -4.128,2.43643 -6.5243,2.52417 -2.6257,0 -4.3121,-1.36874 -4.3121,-4.73124 0,-3.36193 1.5758,-7.8896 3.9996,-13.99073 0.1009,-0.10264 3.5747,-7.88731 6.8368,-15.35201 2.7363,-6.31501 5.4727,-12.41211 5.9985,-13.67419 h 8.3116 l 1.6847,-3.78684 h -8.2084 z m -358.9198,60.68496 c -1.7879,0 -3.0505,-0.63075 -3.0505,-2.94448 0.1043,-6.20605 5.2588,-17.24828 11.6816,-26.08401 4.5231,-6.09998 10.4149,-10.6202 16.7287,-10.6202 l -7.9979,17.8756 c -5.9979,13.46433 -12.5217,21.77309 -17.3619,21.77309 z m 78.7074,0 c -1.7873,0 -3.05,-0.63075 -3.1538,-2.94448 0.1044,-6.20605 5.2594,-17.24828 11.6799,-26.08401 4.5219,-6.09998 10.416,-10.6202 16.7293,-10.6202 l -7.9991,17.87617 c -6.1011,13.78143 -12.3089,21.7731 -17.258,21.7731 v 0 z m 139.7341,-34.80966 c -0.3137,6.83395 -6.3122,23.34368 -13.3612,33.23393 -2.8378,3.99555 -5.2616,5.15097 -7.362,5.15097 -2.9491,0 -3.796,-2.42038 -3.3728,-5.99447 0.6273,-6.20434 5.7869,-20.71801 12.9459,-30.70975 3.2616,-4.52252 5.4733,-6.41592 7.9974,-6.41592 2.5253,5.7e-4 3.2622,2.10499 3.1527,4.73524 z m 196.3873,-8.10118 11.5899,-26.74919 h -13.7161 l -11.5904,26.74919 h -29.1529 l -4.8632,11.21769 h 29.1616 l -11.5899,26.74918 h 13.7161 l 11.591,-26.74918 h 29.1523 l 4.8551,-11.21769 z"
     id="path2"
     inkscape:export-filename="C:\Users\alex\sites\paramount-plus-logo-5.png"
     inkscape:export-xdpi="117.193"
     inkscape:export-ydpi="117.193" />
</svg>
