<?xml version="1.0" encoding="UTF-8" standalone="no"?>
<svg
   xmlns:dc="http://purl.org/dc/elements/1.1/"
   xmlns:cc="http://creativecommons.org/ns#"
   xmlns:rdf="http://www.w3.org/1999/02/22-rdf-syntax-ns#"
   xmlns:svg="http://www.w3.org/2000/svg"
   xmlns="http://www.w3.org/2000/svg"
   xmlns:sodipodi="http://sodipodi.sourceforge.net/DTD/sodipodi-0.dtd"
   xmlns:inkscape="http://www.inkscape.org/namespaces/inkscape"
   class="svg css-wpyjus-Icon__svg"
   viewBox="0 0 700 700"
   version="1.1"
   id="svg4"
   sodipodi:docname="epic-games-logo.svg"
   width="700"
   height="700"
   inkscape:version="0.92.4 (5da689c313, 2019-01-14)"
   inkscape:export-filename="C:\Users\suitedoalex\sites\epic-games-logo-0.png"
   inkscape:export-xdpi="561.73712"
   inkscape:export-ydpi="561.73712">
  <metadata
     id="metadata10">
    <rdf:RDF>
      <cc:Work
         rdf:about="">
        <dc:format>image/svg+xml</dc:format>
        <dc:type
           rdf:resource="http://purl.org/dc/dcmitype/StillImage" />
        <dc:title></dc:title>
      </cc:Work>
    </rdf:RDF>
  </metadata>
  <defs
     id="defs8" />
  <sodipodi:namedview
     pagecolor="#ffffff"
     bordercolor="#666666"
     borderopacity="1"
     objecttolerance="10"
     gridtolerance="10"
     guidetolerance="10"
     inkscape:pageopacity="0"
     inkscape:pageshadow="2"
     inkscape:window-width="1600"
     inkscape:window-height="837"
     id="namedview6"
     showgrid="false"
     inkscape:zoom="0.35355339"
     inkscape:cx="356.96806"
     inkscape:cy="594.88689"
     inkscape:window-x="-8"
     inkscape:window-y="-8"
     inkscape:window-maximized="1"
     inkscape:current-layer="svg4" />
  <path
     style="fill:#ffffff;stroke:#000000;stroke-width:1.08578038px;stroke-linecap:butt;stroke-linejoin:miter;stroke-opacity:1"
     d="m 193.64763,157.81688 c 10.8578,-1.08578 315.96208,6.51468 315.96208,6.51468 L 503.09503,473.77897 441.20555,522.63908 350,561.72718 233.8215,505.2666 181.70404,420.57573 Z"
     id="path860"
     inkscape:connector-curvature="0"
     inkscape:export-filename="C:\Users\suitedoalex\sites\epic-games-logo-5.png"
     inkscape:export-xdpi="101.12439"
     inkscape:export-ydpi="101.12439" />
  <path
     d="m 194.21031,127.5091 h 311.58048 c 24.88691,0 34.07439,9.39894 34.07439,34.87274 v 307.39454 c 0,2.89132 0,22.82847 -19.54445,33.36667 -13.0325,7.02115 -64.006,28.62405 -152.92481,64.80867 -7.85403,3.68535 -11.64727,4.63906 -17.39106,4.53116 -6.45584,0 -8.87678,-0.8717 -17.47737,-4.53116 -88.85839,-37.35409 -139.806,-58.96131 -152.84281,-64.80867 -19.54876,-8.78184 -18.62095,-19.76453 -19.19059,-25.32277 a 81.047519,81.047519 0 0 1 -0.35817,-8.0439 V 162.38184 c 0,-25.4738 9.18748,-34.87274 34.07439,-34.87274 z m 285.20043,313.31526 0.0647,-0.75087 v -1.64418 l -0.0647,-0.75087 -0.0734,-0.68615 -0.27619,-1.37229 -0.13809,-0.6128 -0.20282,-0.6171 -0.21578,-0.62141 -0.27187,-0.54374 -0.34954,-0.62142 -0.34955,-0.54374 -0.41428,-0.61278 -0.41428,-0.55238 -0.48763,-0.4747 -0.48765,-0.55236 -0.55236,-0.47902 -0.55237,-0.479 -0.561,-0.34524 -0.55237,-0.41428 -0.55238,-0.3366 -0.62573,-0.34522 -0.62573,-0.34093 -0.69047,-0.34522 -0.69909,-0.27619 -0.69047,-0.34524 -0.76383,-0.25892 -0.62572,-0.21146 -0.62143,-0.20713 -0.69909,-0.19851 -0.62142,-0.20714 -0.69046,-0.20713 -0.69047,-0.20715 -0.7034,-0.13809 -0.76383,-0.20714 -0.69047,-0.19851 -0.76382,-0.14241 -0.76382,-0.20282 -0.76383,-0.20713 -0.76382,-0.20715 -0.69047,-0.13378 -0.62574,-0.20713 -0.62572,-0.13809 -0.55238,-0.20715 -0.55237,-0.13378 -0.83718,-0.27187 -0.76384,-0.2805 -0.69046,-0.27186 -0.55237,-0.34092 -0.63436,-0.34523 -0.47901,-0.47469 -0.28482,-0.40997 -0.34091,-0.7552 -0.0734,-0.88897 v -0.14241 l 0.0734,-0.67752 0.27618,-0.62141 0.41428,-0.6171 0.62573,-0.54806 0.48764,-0.27187 0.55238,-0.27187 0.62572,-0.13809 0.6991,-0.14241 0.7552,-0.13378 h 1.52765 l 0.62573,0.0691 0.69909,0.0647 0.69047,0.0734 0.69046,0.13378 0.69047,0.1381 0.69909,0.13377 0.69047,0.20714 0.69909,0.20714 0.75951,0.20714 0.561,0.27187 0.62142,0.20713 0.55237,0.27188 0.62573,0.27187 0.55669,0.2805 0.62574,0.27187 0.55237,0.34524 0.62573,0.26754 0.561,0.41428 0.54805,0.34524 0.62143,0.34091 0.561,0.40997 0.41428,-0.54375 0.34522,-0.55237 0.4186,-0.54806 0.41428,-0.54373 0.41428,-0.62142 0.34522,-0.54373 0.41861,-0.55238 0.42291,-0.54805 0.34091,-0.54375 0.41428,-0.55237 0.4229,-0.54806 0.34523,-0.54373 0.40997,-0.62142 0.4229,-0.54375 0.41428,-0.55236 0.34524,-0.54806 0.41859,-0.55237 -0.55237,-0.40565 -0.55237,-0.40996 -0.561,-0.41428 -0.55237,-0.34523 -0.62573,-0.40565 -0.55237,-0.34523 -0.62574,-0.34092 -0.62573,-0.34523 -0.55237,-0.27618 -0.62574,-0.3366 -0.69909,-0.27619 -0.62141,-0.27187 -0.62574,-0.27187 -0.62142,-0.20714 -0.69909,-0.2805 -0.62142,-0.13377 -0.62573,-0.20715 -0.69478,-0.20282 -0.62142,-0.13378 -0.69478,-0.1424 -0.69047,-0.1381 -0.63004,-0.13377 -0.69047,-0.1381 -0.76383,-0.0691 -0.69045,-0.13809 -0.76815,-0.0647 h -0.69046 l -0.76815,-0.0691 -0.76382,-0.0734 h -2.97762 l -1.38525,0.14241 -0.69909,0.0647 -0.69046,0.0734 -0.62574,0.13378 -0.69047,0.1381 -0.63435,0.13377 -0.61711,0.1381 -0.55236,0.1424 -0.63437,0.19851 -0.69047,0.2805 -0.69046,0.19851 -0.62573,0.2805 -0.62574,0.34523 -0.62572,0.26756 -0.62574,0.34523 -0.55237,0.34524 -0.55238,0.40564 -0.561,0.41427 -0.479,0.34524 -0.561,0.47469 -0.47902,0.55238 -0.48764,0.47469 -0.48764,0.54805 -0.41428,0.54806 -0.41428,0.55237 -0.34954,0.61279 -0.34524,0.6171 -0.2805,0.62142 -0.27618,0.61279 -0.27619,0.61709 -0.13809,0.61279 -0.21577,0.62142 -0.27187,1.22989 -0.0734,0.69046 -0.0647,0.61278 -0.0734,0.68616 v 1.57943 l 0.0734,0.74656 0.0647,0.69047 0.0734,0.68183 0.1381,0.6171 0.13809,0.68615 0.21145,0.54375 0.20283,0.62141 0.21145,0.54374 0.27618,0.47469 0.34524,0.61711 0.34523,0.55238 0.34523,0.47469 0.4186,0.48332 0.42291,0.47469 0.479,0.48333 0.48765,0.47469 0.48763,0.41859 0.55237,0.34524 0.561,0.40564 0.61711,0.34524 0.561,0.34091 0.69047,0.34524 0.62573,0.34091 0.69046,0.27187 0.6991,0.27619 0.69046,0.27187 0.76382,0.27187 0.62574,0.20714 0.62573,0.20713 0.61711,0.20715 0.69909,0.13809 0.62573,0.20713 0.69046,0.19852 0.69047,0.13809 0.69909,0.20714 0.69047,0.13378 0.76383,0.20713 0.69909,0.13809 0.75519,0.20715 0.6991,0.13378 0.69046,0.20713 0.62574,0.13809 0.62573,0.20715 0.55237,0.13378 0.48763,0.13809 0.83288,0.34091 0.69478,0.2805 0.62573,0.27187 0.55238,0.27188 0.55668,0.41427 0.48332,0.40564 0.34956,0.47902 0.27618,0.68615 0.0734,0.81992 v 0.13809 l -0.0734,0.68615 -0.20714,0.61279 -0.27619,0.55237 -0.41859,0.47469 -0.55237,0.41861 -0.48764,0.27186 -0.561,0.20714 -0.61711,0.13378 -0.62573,0.13809 -0.69478,0.13378 -0.76383,0.0734 h -1.52332 l -0.76384,-0.0734 h -0.69046 l -0.69909,-0.13378 -0.76383,-0.0647 -0.69046,-0.14241 -0.69047,-0.13809 -0.69909,-0.13377 -0.62574,-0.20715 -0.69046,-0.20282 -0.69047,-0.20714 -0.63435,-0.27187 -0.61711,-0.20714 -0.62573,-0.27618 -0.62574,-0.27188 -0.62573,-0.27187 -0.55237,-0.34522 -0.62574,-0.27188 -0.55236,-0.34523 -0.62574,-0.40997 -0.561,-0.34523 -0.6171,-0.40565 -0.561,-0.41427 -0.61711,-0.41428 -0.561,-0.40996 -0.41428,0.55236 -0.48763,0.47902 -0.41428,0.54806 -0.48764,0.54373 -0.41428,0.47902 -0.41428,0.55237 -0.48764,0.54806 -0.41428,0.479 -0.48764,0.54374 -0.41428,0.48764 -0.48763,0.54374 -0.41428,0.54806 -0.41428,0.47901 -0.48765,0.55237 -0.41428,0.54374 -0.48763,0.47469 -0.41428,0.55237 0.55237,0.47901 0.48765,0.41428 0.55236,0.40996 0.55237,0.41428 0.561,0.40565 0.55237,0.41428 0.55238,0.34523 0.55237,0.34524 0.63436,0.34091 0.55238,0.3366 0.61709,0.34524 0.63437,0.27617 0.6171,0.33661 0.62574,0.27187 0.62573,0.27619 0.69046,0.27186 0.62574,0.20714 0.69045,0.20714 0.62574,0.27187 0.6991,0.20714 0.69046,0.20282 0.62573,0.14241 0.69046,0.19852 0.6991,0.1424 0.69046,0.1381 1.38956,0.27186 0.69047,0.0691 0.69909,0.13809 0.7552,0.0647 0.6991,0.0691 0.69046,0.0734 h 0.76382 l 0.69047,0.0647 h 2.91721 l 0.69046,-0.0647 0.76814,-0.0734 0.69478,-0.0691 0.62573,-0.0647 0.69047,-0.0734 0.69909,-0.13378 0.62142,-0.13809 0.62573,-0.13378 0.69047,-0.1381 0.63004,-0.20713 0.69047,-0.20714 0.69046,-0.20714 0.69047,-0.27187 0.7034,-0.27187 0.62143,-0.34523 0.62141,-0.27619 0.63005,-0.34523 0.55669,-0.40564 0.55237,-0.33661 0.55236,-0.41428 0.48765,-0.40564 0.55237,-0.48765 0.41428,-0.40565 0.48763,-0.479 0.41428,-0.47901 0.34524,-0.55237 0.41859,-0.54806 0.6991,-1.09611 0.27618,-0.61279 0.27619,-0.55237 0.27619,-0.61278 0.21145,-0.69047 0.13809,-0.61278 0.20283,-0.68615 0.14672,-0.68615 0.0647,-0.75088 0.0734,-0.68615 z m -48.66475,13.69709 h 0.69909 v -11.30204 h -27.19996 v -8.48838 h 24.14466 v -10.6159 h -24.14466 v -8.1561 h 26.85042 v -11.30635 h -40.10302 v 49.86877 z m -50.68869,0 h 0.69047 v -49.86877 h -14.21925 l -0.34955,0.54806 -0.34523,0.6171 -0.41859,0.54374 -0.34955,0.62143 -0.34523,0.54373 -0.34524,0.62142 -0.41426,0.54373 -0.34956,0.6128 -0.34955,0.55237 -0.34523,0.54373 -0.41427,0.6128 -0.34523,0.55237 -0.34955,0.61278 -0.34955,0.55238 -0.40996,0.60415 -0.34524,0.55237 -0.35385,0.55238 -0.34524,0.60415 -0.34523,0.55236 -0.41428,0.61711 -0.34524,0.54806 -0.35385,0.60847 -0.34524,0.55237 -0.41859,0.61279 -0.34092,0.54374 -0.34523,0.55237 -0.35386,0.61279 -0.41428,0.55237 -0.34524,0.61278 -0.34522,0.54375 -0.34524,0.62141 -0.41859,0.54374 -0.34523,0.61279 -0.35387,0.55237 -0.34091,-0.55237 -0.34523,-0.61279 -0.42723,-0.54374 -0.34091,-0.62141 -0.34523,-0.54375 -0.34524,-0.61278 -0.34523,-0.55237 -0.42723,-0.61279 -0.34091,-0.55237 -0.34523,-0.54374 -0.34524,-0.61279 -0.34522,-0.55237 -0.42724,-0.60416 -0.34091,-0.55237 -0.34523,-0.61711 -0.34523,-0.54804 -0.34955,-0.60847 -0.4229,-0.55238 -0.34093,-0.54805 -0.34522,-0.60847 -0.35387,-0.55238 -0.41428,-0.61278 -0.34523,-0.55237 -0.34523,-0.6128 -0.34523,-0.54373 -0.35387,-0.55237 -0.41428,-0.6128 -0.34523,-0.54373 -0.34523,-0.62142 -0.34523,-0.54373 -0.35387,-0.62143 -0.41428,-0.54374 -0.34522,-0.6171 -0.34524,-0.54806 h -14.22356 v 49.86877 h 13.18355 v -29.35336 l 0.41428,0.55238 0.34523,0.62141 0.41859,0.54374 0.34524,0.62143 0.41859,0.54804 0.34523,0.61711 0.41859,0.54806 0.34524,0.6171 0.4186,0.54806 0.34522,0.6171 0.4186,0.54805 0.34523,0.62142 0.40997,0.55237 0.34954,0.61278 0.41428,0.55237 0.34955,0.6128 0.42291,0.55236 0.41428,0.6128 0.34523,0.55237 0.40996,0.62141 0.34955,0.54806 0.42291,0.6171 0.34523,0.54805 0.41859,0.61279 0.34524,0.55237 0.40995,0.61279 0.34955,0.55237 0.41428,0.61279 0.34956,0.561 0.41426,0.61279 0.34956,0.54805 0.41428,0.6171 0.34954,0.54806 0.41428,0.6171 h 0.27618 l 0.34955,-0.54374 0.41428,-0.62142 0.34954,-0.55237 0.41428,-0.54806 0.34956,-0.61709 0.41427,-0.54806 0.34523,-0.55237 0.34524,-0.61279 0.42291,-0.55237 0.34522,-0.54374 0.4186,-0.55669 0.34524,-0.61278 0.41427,-0.54806 0.34523,-0.54373 0.34955,-0.62143 0.41428,-0.55237 0.34954,-0.54806 0.41428,-0.6171 0.34524,-0.54805 0.41859,-0.55238 0.34955,-0.61278 0.34523,-0.55237 0.4186,-0.54375 0.34522,-0.62141 0.41428,-0.54806 0.34523,-0.55237 0.41859,-0.54374 0.34524,-0.62141 0.34523,-0.54806 0.42292,-0.55237 0.34522,-0.61279 0.41428,-0.55237 0.34956,-0.54374 0.41426,-0.62142 0.34524,-0.54805 v 29.48713 z m -80.50377,-20.54994 0.27617,0.6171 h -11.72494 l 0.27619,-0.6171 0.21146,-0.62141 0.27618,-0.68615 0.28051,-0.61279 0.20713,-0.62142 0.27619,-0.6171 0.27618,-0.68615 0.27619,-0.62142 0.21146,-0.61279 0.27618,-0.6171 0.27619,-0.62141 0.21145,-0.68615 0.27618,-0.61279 0.27619,-0.62142 0.21146,-0.6171 0.27618,-0.62141 0.27619,-0.68615 0.27619,-0.61279 0.21145,-0.62142 0.27618,-0.62141 0.27619,-0.68184 0.21146,-0.6171 0.27618,-0.62142 0.27619,0.62142 0.21145,0.6171 0.26755,0.68184 0.28482,0.62141 0.21146,0.62142 0.27618,0.61279 0.27619,0.69046 0.20282,0.6171 0.28481,0.6171 0.27619,0.62142 0.20283,0.61279 0.28482,0.69046 0.20282,0.6171 0.27618,0.6171 0.27619,0.61279 0.21577,0.62142 0.27186,0.69046 0.27619,0.61279 0.21577,0.62142 0.27187,0.61279 0.27619,0.69046 0.21577,0.6171 z m 21.78845,20.54994 h 0.69046 l -0.27618,-0.6128 -0.27619,-0.6171 -0.27619,-0.62141 -0.21577,-0.68615 -0.27187,-0.60416 -0.27619,-0.61711 -0.27618,-0.62141 -0.561,-1.22988 -0.27187,-0.69047 -0.2805,-0.61279 -0.21577,-0.62141 -0.26756,-0.61279 -0.2805,-0.61711 -0.27618,-0.61278 -0.27619,-0.69047 -0.2805,-0.6171 -0.561,-1.22989 -0.19851,-0.6171 -0.2805,-0.62141 -0.28051,-0.68615 -0.27618,-0.61279 -0.27619,-0.61711 -0.55236,-1.22988 -0.28051,-0.61711 -0.20713,-0.69045 -0.27619,-0.6128 -0.2805,-0.61278 -0.27619,-0.6171 -0.2805,-0.62142 -0.27618,-0.61279 -0.27619,-0.69046 -0.27618,-0.61279 -0.21578,-0.61278 -0.26755,-0.62143 -0.2805,-0.6171 -0.2805,-0.61278 -0.27618,-0.69046 -0.27619,-0.61279 -0.56101,-1.23421 -0.20282,-0.6171 -0.27618,-0.61278 -0.28051,-0.61711 -0.27187,-0.68615 -0.561,-1.22988 -0.27618,-0.62143 -0.27619,-0.61278 -0.21145,-0.6171 -0.27618,-0.68615 -0.27619,-0.61279 -0.27619,-0.62141 -0.2805,-0.61279 -0.2805,-0.6171 -0.27618,-0.61279 -0.27619,-0.69046 -0.20714,-0.61279 -0.27188,-0.62142 -0.28481,-0.61278 -0.27619,-0.6171 -0.27618,-0.62143 -0.27619,-0.67751 -0.2805,-0.62142 -0.2805,-0.6171 -0.20282,-0.61278 -0.27618,-0.61711 -0.28482,-0.62142 -0.26756,-0.68615 -0.28481,-0.61278 -0.27619,-0.6171 -0.27618,-0.6128 -0.27619,-0.62141 -0.21146,-0.6171 -0.27618,-0.68615 -0.27619,-0.61278 -0.27618,-0.61711 -0.28482,-0.62142 h -12.82969 l -0.27617,0.62142 -0.27619,0.61711 -0.28482,0.61278 -0.20282,0.69047 -0.27619,0.61278 -0.27618,0.62141 -0.28482,0.6128 -0.27187,0.6171 -0.2805,0.61278 -0.27619,0.69047 -0.28481,0.6171 -0.20282,0.61711 -0.55237,1.22988 -0.27619,0.62142 -0.27619,0.67751 -0.28481,0.62143 -0.27619,0.6171 -0.27618,0.61278 -0.21578,0.62142 -0.27187,0.6171 -0.27618,0.68615 -0.55238,1.22989 -0.27618,0.61279 -0.2805,0.62141 -0.2805,0.61279 -0.20282,0.69046 -0.2805,0.61279 -0.27619,0.61278 -0.2805,0.62143 -0.27618,0.6171 -0.27619,0.61278 -0.27619,0.69046 -0.2805,0.6128 -0.20714,0.61278 -0.55669,1.22989 -0.27618,0.62142 -0.2805,0.6171 -0.27619,0.68615 -0.27619,0.61278 -0.27618,0.6171 -0.21577,0.62143 -0.27187,0.61278 -0.27618,0.6171 -0.2805,0.68615 -0.27619,0.61279 -0.27619,0.62142 -0.27618,0.6171 -0.2805,0.61278 -0.20715,0.61711 -0.27617,0.68614 -0.28051,0.61711 -0.27619,0.6171 -0.27617,0.61278 -0.28052,0.61711 -0.27617,0.61279 -0.27619,0.69046 -0.21146,0.6171 -0.55237,1.22989 -0.27618,0.6171 -0.2805,0.62142 -0.27619,0.68615 -0.27187,0.61278 -0.28482,0.61711 -0.20713,0.61279 -0.2805,0.62141 -0.27619,0.61711 -0.27618,0.68615 -0.27619,0.61278 -0.27618,0.6171 -0.561,1.23421 -0.20715,0.60847 -0.27187,0.69046 -0.561,1.2342 -0.27619,0.6128 h 14.02074 l 0.27618,-0.6128 0.20714,-0.6171 0.2805,-0.62141 0.27618,-0.68615 0.20715,-0.60416 0.2805,-0.61711 0.27619,-0.62141 0.20282,-0.6171 0.2805,-0.61278 0.2805,-0.61711 0.20283,-0.62141 0.27618,-0.68615 0.28482,-0.61279 0.20713,-0.61711 0.27187,-0.61278 h 19.91557 l 0.27619,0.61278 0.21576,0.61711 0.27188,0.61279 0.27618,0.69046 0.20715,0.6171 0.2805,0.61711 0.27618,0.61278 0.20714,0.6171 0.561,1.23421 0.19851,0.60847 0.2805,0.69046 0.2805,0.6171 0.21145,0.6171 0.27187,0.6128 z m -60.78672,-6.36954 0.48764,-0.40565 v -22.26745 h -22.89751 v 10.00309 h 10.13256 v 6.23144 l -0.55237,0.34523 -0.49628,0.27619 -0.6171,0.27186 -0.561,0.27187 -0.62574,0.27619 -0.61709,0.13809 -0.69047,0.20715 -0.69909,0.13377 -0.69047,0.1381 -0.69909,0.0647 -0.76382,0.0691 -0.76383,0.0734 h -1.5967 l -0.75951,-0.0734 -0.69047,-0.0691 -0.69909,-0.13809 -0.69047,-0.13378 -0.69909,-0.20713 -0.69047,-0.20283 -0.62572,-0.27619 -0.62574,-0.27187 -0.6171,-0.27186 -0.561,-0.34524 -0.55237,-0.34523 -0.55237,-0.40996 -0.56101,-0.40997 -0.48333,-0.41427 -0.41859,-0.4747 -0.48332,-0.48333 -0.41859,-0.47469 -0.41428,-0.55237 -0.34523,-0.54374 -0.35387,-0.54805 -0.34522,-0.61711 -0.27188,-0.62141 -0.28481,-0.68615 -0.20283,-0.54375 -0.20713,-0.61278 -0.1381,-0.62141 -0.2805,-1.2299 -0.0734,-0.69046 -0.0647,-0.6171 -0.0691,-0.68184 v -1.57943 l 0.0691,-0.68615 0.0647,-0.67751 0.14241,-0.75952 0.14241,-0.61279 0.13809,-0.68183 0.20713,-0.68614 0.27188,-0.6128 0.21145,-0.62141 0.28051,-0.6171 0.34954,-0.54806 0.34523,-0.6171 0.34523,-0.54805 0.34524,-0.47902 0.41859,-0.54373 0.48332,-0.48333 0.4186,-0.47901 0.48333,-0.40996 0.48763,-0.41428 0.48765,-0.40565 0.55237,-0.34523 0.55237,-0.34524 0.561,-0.34091 0.62573,-0.27187 0.61711,-0.27619 0.62573,-0.20282 0.62572,-0.20714 0.62574,-0.13378 0.69047,-0.13809 0.62573,-0.069 0.6991,-0.0734 h 1.45428 l 0.76383,0.0734 0.76383,0.069 0.69046,0.0647 0.69047,0.1381 0.69909,0.1424 0.62573,0.13378 0.61711,0.20282 0.62572,0.20715 0.56101,0.20713 0.55237,0.27187 0.561,0.27619 0.61711,0.34523 0.55236,0.33661 0.56101,0.34522 0.55236,0.34092 0.55237,0.41428 0.56102,0.34092 0.55236,0.479 0.55237,0.40997 0.41428,-0.54374 0.48764,-0.47901 0.41428,-0.55237 0.48764,-0.54806 0.41428,-0.54374 0.4229,-0.48764 0.48333,-0.54374 0.4186,-0.54806 0.48332,-0.55237 0.41859,-0.47469 0.41428,-0.54806 0.48765,-0.54806 0.41427,-0.479 0.41428,-0.55237 0.48764,-0.54806 0.41428,-0.54373 0.48764,-0.47902 0.41428,-0.55237 -0.55237,-0.41428 -0.561,-0.47469 -0.55237,-0.40997 -0.55238,-0.41428 -0.55237,-0.34522 -0.55237,-0.40565 -0.63005,-0.34523 -0.55669,-0.34524 -0.6171,-0.34091 -0.561,-0.34524 -0.62574,-0.26755 -0.6171,-0.34523 -0.63436,-0.27188 -0.6171,-0.27618 -0.62574,-0.27187 -0.62573,-0.20714 -0.55237,-0.20713 -0.62573,-0.13809 -0.62573,-0.19852 -0.62573,-0.14241 -0.61711,-0.13809 -0.63436,-0.13378 -0.69046,-0.13809 -0.69047,-0.13378 -0.62574,-0.0734 -0.76382,-0.13378 -0.69046,-0.0734 h -0.6991 l -0.76383,-0.0647 -0.76382,-0.0691 h -2.98194 l -0.69046,0.0691 -0.6991,0.0647 -1.38092,0.14241 -0.6991,0.13809 -0.69046,0.0647 -0.69047,0.13377 -0.62573,0.20714 -0.6991,0.13809 -0.62573,0.20715 -0.62142,0.13378 -0.62141,0.2805 -0.6991,0.1985 -0.55237,0.20715 -0.69046,0.34522 -0.62574,0.27187 -0.62573,0.27619 -0.62574,0.34523 -0.62573,0.34524 -0.62573,0.34091 -0.54805,0.34524 -0.56101,0.33228 -0.55236,0.41428 -0.56101,0.34523 -0.55238,0.40565 -0.48332,0.41428 -0.55668,0.479 -0.48764,0.40997 -0.48333,0.48332 -0.48332,0.47901 -0.41859,0.47901 -0.48333,0.479 -0.4186,0.47902 -0.41859,0.55237 -0.41428,0.54374 -0.41428,0.54805 -0.69909,1.09612 -0.34091,0.54805 -0.34524,0.55238 -0.35386,0.61278 -0.27618,0.6171 -0.55238,1.23421 -0.27618,0.6171 -0.28482,0.68615 -0.20283,0.61278 -0.21145,0.68615 -0.20283,0.61279 -0.13809,0.69046 -0.21145,0.68184 -0.13809,0.6171 -0.0734,0.68615 -0.13809,0.67752 -0.0691,0.75951 -0.069,0.68615 v 0.67751 l -0.0647,0.75951 v 2.25696 l 0.0647,0.69046 0.069,0.68183 0.0691,0.69047 0.0734,0.61278 0.13809,0.68615 0.0647,0.61279 0.13809,0.69046 0.21578,0.61279 0.13377,0.68615 0.21577,0.61278 0.13378,0.62142 0.27618,0.61279 0.21146,0.55237 0.27619,0.61278 0.27618,0.61711 0.27619,0.61279 0.27618,0.62141 0.34955,0.54374 0.34955,0.62142 0.34523,0.54374 0.34523,0.55237 0.41427,0.54806 0.34955,0.54374 0.41428,0.47901 0.4186,0.55237 0.41859,0.47469 0.48332,0.48332 0.48333,0.4747 0.48764,0.4186 0.48764,0.47469 0.48332,0.41859 0.48765,0.40565 0.561,0.41428 0.54805,0.40997 0.55669,0.41426 0.55237,0.33661 0.561,0.34523 0.62142,0.34092 0.55237,0.34523 0.62574,0.34091 0.62572,0.27188 0.62143,0.27187 0.63004,0.27618 0.69047,0.27187 0.62142,0.20714 0.62573,0.27187 0.62573,0.20715 0.69478,0.13809 0.62142,0.20713 0.69909,0.13378 0.62574,0.13809 0.69045,0.13378 0.69047,0.1381 0.69909,0.0691 0.69047,0.0734 0.69046,0.0647 0.76383,0.0691 0.69047,0.0647 h 2.99056 l 0.76384,-0.0647 0.69046,-0.0691 0.76382,-0.0647 0.6991,-0.0734 0.75519,-0.0691 0.6991,-0.0647 0.69046,-0.13809 0.6991,-0.14241 0.6171,-0.13378 0.69909,-0.13809 0.62573,-0.20715 0.69047,-0.1985 0.62573,-0.20714 0.62573,-0.20714 0.62574,-0.20714 0.6171,-0.27187 0.69909,-0.27187 0.62574,-0.2805 0.69046,-0.27187 0.62573,-0.34523 0.62574,-0.26756 0.62141,-0.34523 0.62574,-0.34523 0.62142,-0.33229 0.55668,-0.34523 0.561,-0.34523 0.54806,-0.40996 0.55669,-0.34523 0.561,-0.40565 0.47469,-0.34524 z m 20.41183,-165.21939 v -25.8665 h -34.42825 v -43.29208 h 34.42825 v -25.84925 h -60.41558 v 172.61598 h 60.41558 v -25.81472 h -34.42825 v -51.79343 z m 172.62893,45.3117 c 0,6.78813 -3.40917,9.93837 -10.10235,9.93837 h -4.9627 c -6.9478,0 -10.76261,-3.15024 -10.76261,-9.93837 V 222.46946 c 0,-6.79243 3.8105,-11.32361 10.75829,-11.32361 h 4.46644 c 8.14747,0 10.60293,2.75322 10.60293,11.32361 v 34.49299 l 25.87946,0.0432 V 219.8328 c 0,-21.08504 -10.96975,-31.75271 -32.55538,-31.75271 h -12.91168 c -21.58563,0 -32.21014,13.29142 -32.21014,34.38942 v 106.98738 c 0,21.09367 10.62451,31.1874 32.21014,31.1874 h 13.15766 c 21.59426,0 32.3094,-10.09804 32.3094,-31.1874 v -37.93668 h -25.87946 z m -86.32093,32.29645 h 25.8924 V 187.92469 h -25.8924 z m -34.54477,-95.9227 c 0,6.90464 -1.88583,9.61471 -8.14748,9.61471 h -9.11844 v -63.12567 h 9.11844 c 6.25733,0 8.14748,3.20203 8.14748,10.10667 z M 289.5979,187.92469 v 172.61598 h 25.8665 v -62.63803 h 13.0584 c 20.16155,0 30.12149,-10.59861 30.12149,-32.04615 v -45.8727 c 0,-21.46048 -9.95994,-32.0591 -30.12149,-32.0591 z m 129.46199,328.13435 h -138.0928 l 69.0464,25.74567 z"
     id="path2"
     style="fill:#353336;fill-opacity:1;fill-rule:evenodd;stroke-width:4.31539965"
     inkscape:connector-curvature="0"
     inkscape:export-filename="C:\Users\suitedoalex\sites\epic-games-logo-5.png"
     inkscape:export-xdpi="101.12439"
     inkscape:export-ydpi="101.12439" />
  <path
     style="fill:#353336;fill-opacity:1;stroke:#000000;stroke-width:1.72225642px;stroke-linecap:butt;stroke-linejoin:miter;stroke-opacity:1"
     d="m 940.76605,50.905821 461.53275,17.17333 25.76,210.373099 -25.76,298.3864 -103.0398,79.42651 -139.5333,57.95996 -221.10633,-118.06654 c 0,0 -38.63996,-203.93307 -36.49328,-229.69303 2.14665,-25.75996 36.49328,-324.146379 36.49328,-324.146379 z"
     id="path845"
     inkscape:connector-curvature="0"
     inkscape:export-filename="C:\Users\suitedoalex\sites\epic-games-logo-4.png"
     inkscape:export-xdpi="63.752918"
     inkscape:export-ydpi="63.752918" />
  <path
     d="m 925.82916,25.052741 h 494.22644 c 39.4755,0 54.0486,14.90852 54.0486,55.31486 V 567.95457 c 0,4.58619 0,36.21027 -31.0012,52.92597 -20.672,11.1368 -101.5258,45.40316 -242.5682,102.7989 -12.458,5.84568 -18.4747,7.35851 -27.5856,7.18732 -10.2402,0 -14.0801,-1.38262 -27.7225,-7.18732 C 1004.2803,664.42865 923.4676,630.15558 902.78871,620.88054 871.78062,606.95076 873.2523,589.53013 872.34876,580.71373 a 128.55695,128.55695 0 0 1 -0.56814,-12.75916 V 80.367601 c 0,-40.40634 14.57311,-55.31486 54.04854,-55.31486 z m 452.38274,496.978379 0.1033,-1.19112 v -2.60801 l -0.1033,-1.19094 -0.1172,-1.08847 -0.4381,-2.17658 -0.2189,-0.97204 -0.3217,-0.97894 -0.3424,-0.98564 -0.4313,-0.86251 -0.5543,-0.98565 -0.5544,-0.8625 -0.6573,-0.97204 -0.657,-0.87612 -0.7735,-0.75297 -0.7734,-0.87611 -0.8763,-0.75986 -0.8761,-0.75968 -0.8899,-0.54768 -0.8761,-0.65722 -0.8763,-0.53389 -0.9924,-0.54751 -0.9925,-0.54079 -1.0954,-0.54768 -1.1088,-0.43797 -1.0951,-0.54767 -1.2116,-0.41076 -0.9926,-0.33532 -0.9856,-0.32861 -1.109,-0.31483 -0.9856,-0.32861 -1.0952,-0.32843 -1.0954,-0.32861 -1.1156,-0.21907 -1.2117,-0.3286 -1.0951,-0.31483 -1.2116,-0.22596 -1.2117,-0.32172 -1.2114,-0.32844 -1.2116,-0.3286 -1.0952,-0.21218 -0.9925,-0.32861 -0.9926,-0.21907 -0.8762,-0.32861 -0.8761,-0.21218 -1.3279,-0.43125 -1.2116,-0.44486 -1.0952,-0.43125 -0.8763,-0.54079 -1.0061,-0.54751 -0.7599,-0.75297 -0.4517,-0.65032 -0.5408,-1.19783 -0.1171,-1.41019 v -0.22578 l 0.1171,-1.07469 0.4381,-0.98565 0.6571,-0.97893 0.9925,-0.86922 0.7735,-0.43126 0.8762,-0.43125 0.9926,-0.21907 1.1088,-0.22596 1.198,-0.21218 h 2.423 l 0.9926,0.11022 1.1089,0.10334 1.0952,0.11711 1.0952,0.21218 1.0952,0.21907 1.1089,0.21219 1.0952,0.3286 1.109,0.32861 1.2047,0.32861 0.8899,0.43108 0.9856,0.3286 0.8761,0.43126 0.9926,0.43125 0.883,0.44486 0.9925,0.43125 0.8763,0.54768 0.9925,0.42436 0.8897,0.65722 0.8694,0.5475 0.9857,0.54079 0.8899,0.65032 0.6572,-0.8625 0.5475,-0.87611 0.6639,-0.8694 0.6572,-0.8625 0.6571,-0.98565 0.5477,-0.86251 0.6639,-0.87611 0.6708,-0.8694 0.5408,-0.8625 0.657,-0.87611 0.6709,-0.8694 0.5476,-0.86233 0.6504,-0.98582 0.6708,-0.86234 0.657,-0.87628 0.5477,-0.86922 0.6639,-0.87629 -0.8761,-0.64343 -0.8763,-0.65015 -0.8897,-0.65722 -0.8763,-0.5475 -0.9925,-0.64344 -0.8761,-0.54767 -0.9926,-0.54079 -0.9925,-0.54751 -0.8761,-0.43814 -0.9925,-0.5339 -1.109,-0.43814 -0.9857,-0.43125 -0.9925,-0.43126 -0.9856,-0.32843 -1.109,-0.44503 -0.9856,-0.21218 -0.9926,-0.32861 -1.1021,-0.32172 -0.9856,-0.21218 -1.1021,-0.22579 -1.0952,-0.21907 -0.9994,-0.21218 -1.0952,-0.21907 -1.2116,-0.11023 -1.0952,-0.21907 -1.2184,-0.10333 h -1.0952 l -1.2185,-0.11023 -1.2115,-0.11711 h -4.7231 l -2.1972,0.22596 -1.109,0.10333 -1.0952,0.11712 -0.9925,0.21218 -1.0952,0.21907 -1.0063,0.21218 -0.9788,0.21907 -0.8761,0.22579 -1.0063,0.31483 -1.0952,0.44503 -1.0952,0.31483 -0.9925,0.44503 -0.9925,0.54751 -0.9926,0.42436 -0.9925,0.54768 -0.8761,0.5475 -0.8763,0.64344 -0.8899,0.65721 -0.7597,0.54751 -0.8899,0.75297 -0.7598,0.87628 -0.7735,0.75297 -0.7735,0.86922 -0.657,0.8694 -0.6572,0.87611 -0.5544,0.97204 -0.5477,0.97876 -0.4448,0.98582 -0.4382,0.97187 -0.4381,0.97893 -0.2189,0.97204 -0.3424,0.98565 -0.4313,1.9508 -0.1171,1.09518 -0.1033,0.97204 -0.1171,1.0883 v 2.50536 l 0.1171,1.18423 0.1033,1.09518 0.1171,1.0814 0.2191,0.97894 0.2191,1.08829 0.3355,0.86251 0.3217,0.98564 0.3353,0.86251 0.4382,0.75297 0.5475,0.97893 0.5476,0.87611 0.5475,0.75297 0.6641,0.76658 0.6709,0.75297 0.7597,0.76675 0.7736,0.75297 0.7735,0.66393 0.8761,0.5475 0.8899,0.64344 0.9787,0.54768 0.8899,0.54078 1.0952,0.54751 0.9925,0.54079 1.0952,0.43125 1.109,0.43814 1.0952,0.43126 1.2116,0.43125 0.9925,0.32843 0.9925,0.32861 0.9788,0.32861 1.1089,0.21907 0.9926,0.32843 1.0952,0.315 1.0952,0.2189 1.1089,0.32861 1.0952,0.21218 1.2116,0.32861 1.109,0.21907 1.1978,0.3286 1.109,0.21219 1.0951,0.32843 0.9926,0.21907 0.9925,0.32861 0.8761,0.21218 0.7735,0.21907 1.3211,0.54079 1.1021,0.44486 0.9925,0.43125 0.8762,0.43125 0.883,0.65704 0.7665,0.64344 0.5546,0.75986 0.438,1.08847 0.1171,1.30047 v 0.21907 l -0.1171,1.0883 -0.3285,0.97204 -0.4381,0.87611 -0.6639,0.75297 -0.8762,0.6641 -0.7736,0.43108 -0.8897,0.32861 -0.9789,0.21218 -0.9926,0.21907 -1.102,0.21218 -1.2117,0.11712 h -2.4161 l -1.2116,-0.11712 h -1.0952 l -1.109,-0.21218 -1.2116,-0.10333 -1.0952,-0.22596 -1.0951,-0.2189 -1.109,-0.21218 -0.9925,-0.32861 -1.0952,-0.32172 -1.0952,-0.3286 -1.0063,-0.43126 -0.9788,-0.3286 -0.9925,-0.43797 -0.9925,-0.43126 -0.9926,-0.43125 -0.8761,-0.54768 -0.9925,-0.43125 -0.8763,-0.54751 -0.9925,-0.65032 -0.8898,-0.54768 -0.9789,-0.64343 -0.8899,-0.65704 -0.9787,-0.65704 -0.8899,-0.65033 -0.6572,0.87611 -0.7735,0.75986 -0.6571,0.86923 -0.7734,0.8625 -0.6572,0.75986 -0.6571,0.87611 -0.7734,0.8694 -0.6573,0.75969 -0.7734,0.8625 -0.6572,0.77347 -0.7735,0.8625 -0.657,0.8694 -0.6572,0.75969 -0.7735,0.87628 -0.6571,0.86251 -0.7734,0.75279 -0.6572,0.87629 0.8761,0.75969 0.7736,0.65721 0.8761,0.65032 0.8761,0.65704 0.8899,0.64344 0.8761,0.65721 0.8763,0.54751 0.8761,0.54767 1.0062,0.54079 0.8763,0.5339 0.9787,0.54751 1.0063,0.43814 0.9788,0.5339 0.9925,0.43125 0.9926,0.43814 1.0952,0.43126 0.9925,0.32843 1.0952,0.32861 0.9925,0.43125 1.109,0.32861 1.0952,0.32171 0.9925,0.22579 1.0952,0.315 1.1089,0.22579 1.0952,0.21907 2.2042,0.43126 1.0951,0.11022 1.109,0.21907 1.1978,0.10334 1.109,0.11022 1.0952,0.11711 h 1.2116 l 1.0952,0.10334 h 4.6272 l 1.0951,-0.10334 1.2185,-0.11711 1.1021,-0.11022 0.9925,-0.10334 1.0952,-0.11711 1.1088,-0.21218 0.9858,-0.21908 0.9926,-0.21218 1.0951,-0.21907 0.9995,-0.32861 1.0952,-0.3286 1.0951,-0.32844 1.0952,-0.43125 1.1157,-0.43125 0.9858,-0.54768 0.9857,-0.43814 0.9994,-0.54751 0.883,-0.64343 0.8761,-0.5339 0.8761,-0.65721 0.7735,-0.64344 0.8763,-0.77346 0.657,-0.64344 0.7735,-0.75969 0.6572,-0.75986 0.5475,-0.87611 0.6641,-0.86939 1.1088,-1.73862 0.4381,-0.97204 0.4382,-0.87611 0.4379,-0.97205 0.3355,-1.09518 0.2191,-0.97204 0.3217,-1.08829 0.2327,-1.08847 0.1033,-1.19094 0.1171,-1.08847 z m -77.1917,21.72609 h 1.1089 v -17.92714 h -43.1444 v -13.46426 h 38.2982 v -16.83884 h -38.2982 v -12.93708 h 42.59 v -17.93402 h -63.6112 v 79.10134 z m -80.402,0 h 1.0953 v -79.10134 h -22.5545 l -0.5545,0.86922 -0.5476,0.97893 -0.6639,0.86251 -0.5546,0.98564 -0.5475,0.86251 -0.5476,0.98565 -0.6571,0.8625 -0.5545,0.97187 -0.5544,0.87629 -0.5477,0.8625 -0.6571,0.97187 -0.5476,0.87628 -0.5544,0.97187 -0.5544,0.87629 -0.6503,0.95826 -0.5477,0.87611 -0.5613,0.87629 -0.5475,0.95826 -0.5477,0.87611 -0.657,0.97893 -0.5477,0.86923 -0.5613,0.96515 -0.5475,0.87628 -0.6641,0.97187 -0.5408,0.86251 -0.5475,0.87611 -0.5613,0.97204 -0.6572,0.87629 -0.5475,0.97186 -0.5477,0.86251 -0.5475,0.98565 -0.6641,0.8625 -0.5475,0.97205 -0.5613,0.87611 -0.5408,-0.87611 -0.5476,-0.97205 -0.6776,-0.8625 -0.5408,-0.98565 -0.5476,-0.86251 -0.5475,-0.97186 -0.5477,-0.87629 -0.6777,-0.97204 -0.5406,-0.87611 -0.5477,-0.86251 -0.5477,-0.97187 -0.5475,-0.87628 -0.6777,-0.95826 -0.5408,-0.87612 -0.5475,-0.97893 -0.5477,-0.86922 -0.5544,-0.96515 -0.6708,-0.87629 -0.5408,-0.86922 -0.5477,-0.96515 -0.5612,-0.87629 -0.6571,-0.97187 -0.5477,-0.87628 -0.5475,-0.97187 -0.5476,-0.8625 -0.5613,-0.87629 -0.6571,-0.97187 -0.5476,-0.8625 -0.5477,-0.98565 -0.5475,-0.86251 -0.5613,-0.98564 -0.6572,-0.86251 -0.5475,-0.97893 -0.5477,-0.86922 h -22.5612 v 79.10134 h 20.9116 v -46.56 l 0.6571,0.87611 0.5476,0.98565 0.664,0.86251 0.5476,0.98582 0.664,0.86922 0.5475,0.97893 0.6641,0.86922 0.5475,0.97893 0.6639,0.86923 0.5477,0.97893 0.6639,0.86922 0.5477,0.98582 0.6503,0.87611 0.5544,0.97204 0.6571,0.87611 0.5545,0.97205 0.6708,0.87611 0.6571,0.97204 0.5477,0.87611 0.6501,0.98565 0.5546,0.86939 0.6708,0.97876 0.5475,0.8694 0.6641,0.97204 0.5475,0.87611 0.6503,0.97204 0.5544,0.87611 0.6572,0.97205 0.5544,0.88989 0.6571,0.97186 0.5545,0.8694 0.6571,0.97876 0.5546,0.86939 0.657,0.97876 h 0.4381 l 0.5544,-0.86233 0.6572,-0.98582 0.5544,-0.87611 0.6571,-0.8694 0.5545,-0.97876 0.6571,-0.86939 0.5477,-0.87611 0.5475,-0.97205 0.6708,-0.87611 0.5477,-0.8625 0.6639,-0.883 0.5477,-0.97205 0.657,-0.86922 0.5477,-0.8625 0.5544,-0.98565 0.6572,-0.87629 0.5544,-0.86922 0.657,-0.97893 0.5477,-0.86922 0.6639,-0.87629 0.5546,-0.97187 0.5475,-0.87628 0.6639,-0.86233 0.5477,-0.98582 0.6571,-0.86923 0.5476,-0.87628 0.664,-0.86233 0.5476,-0.98582 0.5475,-0.86923 0.6709,-0.87611 0.5476,-0.97204 0.6571,-0.87628 0.5546,-0.86234 0.657,-0.98582 0.5477,-0.86922 v 46.77218 z m -127.6944,-32.59612 0.438,0.97894 h -18.598 l 0.4381,-0.97894 0.3354,-0.98564 0.4381,-1.08847 0.4449,-0.97187 0.3286,-0.98582 0.4381,-0.97876 0.4381,-1.08829 0.4381,-0.98582 0.3354,-0.97187 0.438,-0.97893 0.4381,-0.98565 0.3354,-1.08846 0.4381,-0.97187 0.4381,-0.98582 0.3354,-0.97876 0.4381,-0.98565 0.4381,-1.08846 0.4381,-0.97187 0.3354,-0.98582 0.438,-0.98565 0.4381,-1.08158 0.3354,-0.97875 0.4381,-0.98565 0.4381,0.98565 0.3354,0.97875 0.4244,1.08158 0.4518,0.98565 0.3354,0.98582 0.4381,0.97187 0.4381,1.09518 0.3217,0.97893 0.4517,0.97876 0.4381,0.98582 0.3217,0.97187 0.4518,1.09535 0.3217,0.97876 0.4381,0.97893 0.4381,0.97187 0.3423,0.98582 0.4312,1.09518 0.4381,0.97187 0.3422,0.98582 0.4313,0.97187 0.4381,1.09536 0.3422,0.97875 z m 34.5606,32.59612 h 1.0952 l -0.438,-0.97204 -0.4381,-0.97876 -0.4382,-0.98565 -0.3422,-1.08846 -0.4312,-0.95827 -0.438,-0.97876 -0.4382,-0.98582 -0.8898,-1.9508 -0.4313,-1.09518 -0.4449,-0.97204 -0.3422,-0.98565 -0.4245,-0.97204 -0.4449,-0.97876 -0.4381,-0.97204 -0.438,-1.09518 -0.445,-0.97893 -0.8899,-1.9508 -0.3148,-0.97876 -0.4449,-0.98582 -0.445,-1.08829 -0.438,-0.97205 -0.4381,-0.97875 -0.8761,-1.9508 -0.4451,-0.97893 -0.3284,-1.09519 -0.4381,-0.97204 -0.4449,-0.97204 -0.4382,-0.97876 -0.445,-0.98565 -0.438,-0.97204 -0.4381,-1.09518 -0.438,-0.97204 -0.3423,-0.97204 -0.4244,-0.98565 -0.4449,-0.97876 -0.445,-0.97204 -0.438,-1.09518 -0.4381,-0.97204 -0.8899,-1.95769 -0.3217,-0.97893 -0.438,-0.97187 -0.445,-0.97893 -0.4313,-1.0883 -0.8899,-1.9508 -0.4379,-0.98582 -0.4382,-0.97187 -0.3353,-0.97893 -0.4381,-1.08829 -0.4381,-0.97204 -0.4381,-0.98565 -0.445,-0.97204 -0.4449,-0.97876 -0.4381,-0.97204 -0.438,-1.09518 -0.3286,-0.97205 -0.4312,-0.98564 -0.4518,-0.97204 -0.4381,-0.97893 -0.4381,-0.98565 -0.4381,-1.07469 -0.4449,-0.98565 -0.4449,-0.97876 -0.3217,-0.97204 -0.4381,-0.97893 -0.4518,-0.98565 -0.4244,-1.08829 -0.4518,-0.97204 -0.4381,-0.97893 -0.438,-0.97187 -0.4381,-0.98582 -0.3354,-0.97876 -0.4381,-1.08829 -0.4381,-0.97204 -0.4381,-0.97893 -0.4517,-0.98565 h -20.3504 l -0.4381,0.98565 -0.4381,0.97893 -0.4517,0.97204 -0.3217,1.09518 -0.4381,0.97187 -0.4381,0.98582 -0.4518,0.97187 -0.4312,0.97893 -0.445,0.97204 -0.438,1.09518 -0.4518,0.97876 -0.3217,0.97893 -0.8762,1.9508 -0.4381,0.98565 -0.4381,1.07469 -0.4517,0.98565 -0.4381,0.97893 -0.4381,0.97204 -0.3423,0.98564 -0.4312,0.97876 -0.4381,1.08847 -0.8762,1.9508 -0.438,0.97204 -0.445,0.98565 -0.4449,0.97204 -0.3217,1.09518 -0.4449,0.97204 -0.4381,0.97187 -0.4449,0.98582 -0.4381,0.97876 -0.4381,0.97204 -0.4381,1.09519 -0.4449,0.97204 -0.3286,0.97187 -0.883,1.95097 -0.4381,0.98565 -0.4449,0.97875 -0.4381,1.08847 -0.4381,0.97204 -0.4381,0.97876 -0.3422,0.98565 -0.4313,0.97204 -0.438,0.97893 -0.445,1.08829 -0.438,0.97204 -0.4381,0.98565 -0.4381,0.97876 -0.4449,0.97204 -0.3286,0.97893 -0.4381,1.0883 -0.4449,0.97893 -0.4381,0.97875 -0.4381,0.97205 -0.4449,0.97875 -0.4381,0.97205 -0.4381,1.09518 -0.3354,0.97893 -0.8762,1.9508 -0.438,0.97876 -0.445,0.98582 -0.438,1.08829 -0.4313,0.97204 -0.4518,0.97876 -0.3285,0.97204 -0.4449,0.98565 -0.4381,0.97893 -0.4381,1.08829 -0.4381,0.97205 -0.4381,0.97875 -0.8898,1.95769 -0.3286,0.96516 -0.4313,1.09518 -0.8898,1.95769 -0.4381,0.97204 h 22.2396 l 0.4381,-0.97204 0.3285,-0.97876 0.445,-0.98565 0.438,-1.08846 0.3286,-0.95827 0.4449,-0.97876 0.4381,-0.98582 0.3218,-0.97875 0.4449,-0.97205 0.4449,-0.97875 0.3217,-0.98582 0.4381,-1.0883 0.4518,-0.97204 0.3285,-0.97876 0.4313,-0.97204 h 31.5899 l 0.4381,0.97204 0.3422,0.97876 0.4313,0.97204 0.4381,1.09519 0.3285,0.97893 0.445,0.97875 0.438,0.97205 0.3286,0.97875 0.8899,1.95769 0.3148,0.96516 0.4449,1.09518 0.445,0.97893 0.3354,0.97876 0.4312,0.97204 z m -96.4194,-10.10327 0.7735,-0.64344 v -35.32038 h -36.31986 v 15.86681 h 16.07216 v 9.8842 l -0.8761,0.54768 -0.7872,0.43796 -0.9789,0.43126 -0.8898,0.43125 -0.9926,0.43814 -0.9788,0.21907 -1.0952,0.32844 -1.1089,0.21218 -1.0952,0.21907 -1.1089,0.10334 -1.2116,0.11022 -1.21156,0.11711 h -2.53268 l -1.20472,-0.11711 -1.09521,-0.11022 -1.10889,-0.21907 -1.09522,-0.21219 -1.10889,-0.32843 -1.09522,-0.32172 -0.99252,-0.43814 -0.99254,-0.43125 -0.97884,-0.43126 -0.88986,-0.5475 -0.87616,-0.54768 -0.87616,-0.65032 -0.88988,-0.65033 -0.76664,-0.65704 -0.66397,-0.75297 -0.76664,-0.76657 -0.66397,-0.75298 -0.65712,-0.87628 -0.54761,-0.86233 -0.5613,-0.8694 -0.54759,-0.97876 -0.43126,-0.98582 -0.45176,-1.08829 -0.32172,-0.86251 -0.32855,-0.97204 -0.21906,-0.98564 -0.44493,-1.9508 -0.11642,-1.09519 -0.10265,-0.97893 -0.10953,-1.0814 v -2.50537 l 0.10953,-1.08829 0.10265,-1.07469 0.22589,-1.20472 0.22589,-0.97204 0.21904,-1.08158 0.32855,-1.08829 0.43126,-0.97204 0.33539,-0.98565 0.44494,-0.97893 0.55445,-0.86922 0.54759,-0.97893 0.54761,-0.86923 0.54761,-0.75986 0.66396,-0.8625 0.76665,-0.76658 0.66398,-0.75986 0.76665,-0.65032 0.77348,-0.65704 0.7735,-0.64344 0.87616,-0.54768 0.87616,-0.5475 0.88986,-0.54079 0.99254,-0.43125 0.97884,-0.43815 0.99254,-0.32171 0.99252,-0.32844 0.99253,-0.21218 1.09522,-0.21907 0.99254,-0.11022 1.10889,-0.11712 h 2.30677 l 1.21159,0.11712 1.21159,0.11022 1.0952,0.10334 1.0952,0.21907 1.1089,0.22578 0.9925,0.21219 0.9789,0.32171 0.9925,0.32861 0.8899,0.32861 0.8761,0.43125 0.8899,0.43797 0.9788,0.54768 0.8762,0.5339 0.8898,0.54767 0.8762,0.54062 0.8762,0.65721 0.8898,0.54079 0.8762,0.75969 0.8762,0.65032 0.6571,-0.8625 0.7735,-0.75969 0.6571,-0.87628 0.7735,-0.86923 0.6571,-0.8625 0.6708,-0.77347 0.7667,-0.8625 0.664,-0.8694 0.7666,-0.87611 0.664,-0.75297 0.6571,-0.86922 0.7735,-0.8694 0.6571,-0.75986 0.6571,-0.87611 0.7735,-0.8694 0.6572,-0.86233 0.7734,-0.75986 0.6572,-0.87611 -0.8762,-0.65721 -0.8898,-0.75297 -0.8762,-0.65033 -0.8762,-0.65704 -0.8762,-0.54768 -0.8761,-0.64343 -0.9994,-0.54751 -0.883,-0.54767 -0.9789,-0.54079 -0.8898,-0.54751 -0.9925,-0.42436 -0.9789,-0.54768 -1.0062,-0.43125 -0.9788,-0.43797 -0.9926,-0.43126 -0.9925,-0.3286 -0.8762,-0.32861 -0.9925,-0.21907 -0.9925,-0.31483 -0.9926,-0.22596 -0.9788,-0.2189 -1.0062,-0.21218 -1.0952,-0.21907 -1.0953,-0.21218 -0.9925,-0.11712 -1.2116,-0.21218 -1.0952,-0.11711 h -1.1089 l -1.2116,-0.10334 -1.21152,-0.11022 h -4.72992 l -1.09522,0.11022 -1.10889,0.10334 -2.19042,0.22579 -1.10891,0.21907 -1.0952,0.10333 -1.09522,0.21219 -0.99252,0.3286 -1.10891,0.21907 -0.99253,0.32844 -0.98568,0.21218 -0.98569,0.44503 -1.1089,0.31483 -0.87617,0.3286 -1.0952,0.54751 -0.99253,0.43125 -0.99254,0.43815 -0.99254,0.54767 -0.99253,0.54751 -0.99252,0.54079 -0.86933,0.54767 -0.88985,0.52701 -0.87617,0.65705 -0.88985,0.54767 -0.87618,0.64344 -0.76665,0.65704 -0.883,0.75986 -0.7735,0.65032 -0.76665,0.76658 -0.76664,0.75986 -0.66396,0.75986 -0.76665,0.75969 -0.66398,0.75985 -0.66397,0.87612 -0.65712,0.8625 -0.65713,0.8694 -1.10889,1.73862 -0.54076,0.86922 -0.5476,0.87628 -0.5613,0.97187 -0.43808,0.97893 -0.87618,1.95769 -0.43807,0.97876 -0.45178,1.08847 -0.32172,0.97186 -0.33541,1.08847 -0.32172,0.97204 -0.21904,1.09519 -0.3354,1.0814 -0.21904,0.97893 -0.11643,1.08829 -0.21903,1.07469 -0.10954,1.20472 -0.10953,1.08847 v 1.07468 l -0.10265,1.20472 v 3.57989 l 0.10265,1.09518 0.10953,1.08158 0.10954,1.09518 0.11642,0.97204 0.21904,1.08829 0.10265,0.97204 0.21903,1.09519 0.34227,0.97204 0.21218,1.08829 0.34226,0.97204 0.2122,0.98565 0.43807,0.97204 0.33541,0.87612 0.43809,0.97204 0.43808,0.97893 0.43809,0.97187 0.43807,0.98582 0.55446,0.86233 0.55445,0.98582 0.54761,0.86233 0.54759,0.87629 0.65713,0.86922 0.55444,0.86251 0.65713,0.75986 0.66398,0.87611 0.66397,0.75297 0.76664,0.76657 0.76665,0.75298 0.7735,0.6641 0.77348,0.75297 0.76664,0.66393 0.7735,0.64343 0.88986,0.65704 0.86931,0.65033 0.88302,0.65704 0.87616,0.53407 0.88985,0.54751 0.9857,0.54078 0.87617,0.54768 0.99253,0.54062 0.99252,0.43125 0.9857,0.43125 0.99938,0.43815 1.09521,0.43125 0.98568,0.32861 0.99254,0.43108 0.99252,0.3286 1.10206,0.21907 0.98569,0.32861 1.1089,0.21218 0.99253,0.21907 1.0952,0.21218 1.09522,0.21908 1.10889,0.11022 1.09522,0.11711 1.0952,0.10334 1.21157,0.11022 1.09522,0.10334 h 4.74361 l 1.21155,-0.10334 1.0952,-0.11022 1.2116,-0.10334 1.1089,-0.11711 1.1979,-0.11022 1.1089,-0.10334 1.0952,-0.21907 1.1089,-0.22596 0.9788,-0.21218 1.1089,-0.21907 0.9926,-0.32844 1.0952,-0.315 0.9925,-0.32843 0.9926,-0.32861 0.9925,-0.32861 0.9788,-0.43125 1.1089,-0.43125 0.9926,-0.44486 1.0952,-0.43125 0.9925,-0.54768 0.9925,-0.42437 0.9857,-0.5475 0.9926,-0.54768 0.9856,-0.52701 0.8831,-0.54768 0.8898,-0.5475 0.8693,-0.65033 0.8831,-0.54767 0.8898,-0.64344 0.753,-0.5475 z m 32.3771,-262.06977 v -41.02925 h -54.6098 v -68.66956 h 54.6098 v -41.00188 h -95.83074 v 273.8021 h 95.83074 v -40.94716 h -54.6098 v -82.15425 z m 273.8226,71.87307 c 0,10.7672 -5.4075,15.76415 -16.0242,15.76415 h -7.8718 c -11.0205,0 -17.0715,-4.99695 -17.0715,-15.76415 V 175.67813 c 0,-10.7741 6.0441,-17.96142 17.0646,-17.96142 h 7.0847 c 12.9235,0 16.8182,4.36714 16.8182,17.96142 v 54.71251 l 41.0498,0.0685 v -58.96329 c 0,-33.44492 -17.4001,-50.3659 -51.6391,-50.3659 h -20.4804 c -34.239,0 -51.0914,21.08276 -51.0914,54.54823 v 169.70261 c 0,33.45862 16.8524,49.46923 51.0914,49.46923 h 20.8707 c 34.2525,0 51.2488,-16.0175 51.2488,-49.46923 v -60.17492 h -41.0498 z m -136.9215,51.22834 h 41.0703 v -273.8021 h -41.0703 z m -54.7948,-152.15181 c 0,10.95209 -2.9912,15.25077 -12.9234,15.25077 h -14.4635 V 157.6551 h 14.4635 c 9.9253,0 12.9234,5.07904 12.9234,16.03112 z m -68.4162,-121.65029 v 273.8021 h 41.0293 v -99.35592 h 20.713 c 31.9803,0 47.7785,-16.81144 47.7785,-50.83136 v -72.76293 c 0,-34.04045 -15.7982,-50.85189 -47.7785,-50.85189 z m 205.3517,520.48416 h -219.0418 l 109.5209,40.83763 z"
     id="path2-7"
     style="fill:#e8e8e8;fill-opacity:1;fill-rule:evenodd;stroke:none;stroke-width:1.72225642;stroke-miterlimit:4;stroke-dasharray:none"
     inkscape:connector-curvature="0"
     inkscape:export-filename="C:\Users\suitedoalex\sites\epic-games-logo-4.png"
     inkscape:export-xdpi="63.752918"
     inkscape:export-ydpi="63.752918" />
</svg>
