<?xml version="1.0" encoding="UTF-8" standalone="no"?>
<svg
   xmlns:dc="http://purl.org/dc/elements/1.1/"
   xmlns:cc="http://creativecommons.org/ns#"
   xmlns:rdf="http://www.w3.org/1999/02/22-rdf-syntax-ns#"
   xmlns:svg="http://www.w3.org/2000/svg"
   xmlns="http://www.w3.org/2000/svg"
   xmlns:sodipodi="http://sodipodi.sourceforge.net/DTD/sodipodi-0.dtd"
   xmlns:inkscape="http://www.inkscape.org/namespaces/inkscape"
   id="Layer_1"
   data-name="Layer 1"
   viewBox="0 0 700 699.99997"
   version="1.1"
   sodipodi:docname="star+plus-logo.svg"
   width="700"
   height="700"
   inkscape:version="0.92.4 (5da689c313, 2019-01-14)">
  <metadata
     id="metadata34">
    <rdf:RDF>
      <cc:Work
         rdf:about="">
        <dc:format>image/svg+xml</dc:format>
        <dc:type
           rdf:resource="http://purl.org/dc/dcmitype/StillImage" />
        <dc:title>original</dc:title>
      </cc:Work>
    </rdf:RDF>
  </metadata>
  <sodipodi:namedview
     pagecolor="#ffffff"
     bordercolor="#666666"
     borderopacity="1"
     objecttolerance="10"
     gridtolerance="10"
     guidetolerance="10"
     inkscape:pageopacity="0"
     inkscape:pageshadow="2"
     inkscape:window-width="1600"
     inkscape:window-height="837"
     id="namedview32"
     showgrid="false"
     inkscape:zoom="0.35540507"
     inkscape:cx="344.97131"
     inkscape:cy="289.06448"
     inkscape:window-x="-8"
     inkscape:window-y="-8"
     inkscape:window-maximized="1"
     inkscape:current-layer="Layer_1" />
  <defs
     id="defs17">
    <clipPath
       id="clip-path">
      <rect
         x="-229.35001"
         y="-164.27"
         width="2254.8701"
         height="895.62"
         id="rect2"
         style="fill:none" />
    </clipPath>
    <clipPath
       id="clip-path-2">
      <path
         d="m 739.86,208.18 a 5,5 0 0 1 -4.76,3.45 H 537.92 l 159.74,116.06 a 5,5 0 0 0 5.57,0.2 c 44.19,-27.46 82.82,-46.51 165,-68 0,0 -126,94.41 -208.58,200.19 a 25.14,25.14 0 0 0 -4.11,7.71 L 638.35,520.7 797.87,404.8 a 5,5 0 0 1 5.88,0 L 963.27,520.7 902.32,333.12 a 5,5 0 0 1 1.81,-5.59 l 159.52,-115.9 H 866.48 a 5,5 0 0 1 -4.76,-3.45 L 800.79,20.65 Z"
         id="path5"
         inkscape:connector-curvature="0"
         style="fill:none" />
    </clipPath>
    <linearGradient
       id="linear-gradient"
       x1="542.70001"
       y1="-197.7"
       x2="543.70001"
       y2="-197.7"
       gradientTransform="matrix(519.26,0,0,519.26,-281292.66,102929.39)"
       gradientUnits="userSpaceOnUse">
      <stop
         offset="0"
         stop-color="#fa1660"
         id="stop8" />
      <stop
         offset="0.28"
         stop-color="#fa1660"
         id="stop10" />
      <stop
         offset="0.78"
         stop-color="#ff6e00"
         id="stop12" />
      <stop
         offset="1"
         stop-color="#ff6e00"
         id="stop14" />
    </linearGradient>
    <linearGradient
       gradientTransform="matrix(10.046122,0,0,10.046122,357.83636,573.16524)"
       id="paint0_linear"
       x1="27.474701"
       y1="50.811401"
       x2="45.487801"
       y2="32.554199"
       gradientUnits="userSpaceOnUse">
      <stop
         stop-color="#FA1660"
         id="stop15" />
      <stop
         offset="0.28"
         stop-color="#FA1660"
         id="stop17" />
      <stop
         offset="0.78"
         stop-color="#FF6E00"
         id="stop19" />
      <stop
         offset="1"
         stop-color="#FF6E00"
         id="stop21" />
    </linearGradient>
  </defs>
  <title
     id="title19">original</title>
  <polygon
     points="1775.52,251.33 1650.52,251.33 1650.52,126.33 1584.16,126.33 1584.16,251.33 1459.16,251.33 1459.16,315.76 1584.16,315.76 1584.16,440.76 1650.52,440.76 1650.52,315.76 1775.52,315.76 "
     id="polygon21"
     style="fill:#261e3c;fill-opacity:1"
     transform="matrix(0.31131153,0,0,0.31131153,72.725716,265.73575)" />
  <g
     clip-path="url(#clip-path)"
     id="g25"
     style="fill:#261e3c;fill-opacity:1"
     transform="matrix(0.31131153,0,0,0.31131153,72.725716,265.73575)">
    <path
       d="m 1231.71,163.05 c 32.22,0 52.84,16.75 52.84,44.46 0,29 -20.62,49.61 -52.84,49.61 h -51.54 v -94.07 z m 40.59,159.79 c 55.42,-7.08 101.17,-54.77 101.17,-115.33 0,-78.61 -53.48,-121.78 -139.82,-121.78 h -141.11 v 395.62 h 87.63 V 324.78 l 105,156.57 H 1387 Z M 570.09,85.73 H 309.18 v 79.9 h 85.7 v 315.72 h 89.56 V 165.63 h 85.65 z m -425.77,145 c -25.12,-11.59 -34.79,-23.84 -34.79,-39.94 0,-18.69 16.11,-34.15 40,-33.51 21.91,0.64 38,12.24 50.26,40 l 75.38,-32.86 C 254.55,111.58 212.67,80.65 145,80.65 c -71.52,0 -124.36,47 -124.36,110.19 0,43.17 20.62,78.6 73.46,105 l 52.82,26.4 c 29.64,14.82 43.82,25.77 43.82,47.68 0,23.19 -19.33,39.95 -43.82,39.95 -26.42,0 -50.26,-14.82 -61.21,-48.33 l -79.9,23.2 c 18,65.08 71.52,103.09 141.11,103.09 75.39,0 133.38,-48.32 133.38,-117.91 0,-53.48 -28.35,-89.56 -85.7,-116 z"
       id="path23"
       style="fill:#261e3c;fill-opacity:1"
       inkscape:connector-curvature="0" />
  </g>
  <g
     clip-path="url(#clip-path-2)"
     id="g29"
     transform="matrix(0.31131153,0,0,0.31131153,72.725716,265.73575)">
    <rect
       x="438.13"
       y="-91.989998"
       width="725.29999"
       height="725.29999"
       transform="rotate(-45,800.7795,270.65627)"
       id="rect27"
       style="fill:url(#linear-gradient)" />
  </g>
</svg>
