<?xml version="1.0" encoding="utf-8"?>
<!-- Generator: Adobe Illustrator 25.0.1, SVG Export Plug-In . SVG Version: 6.00 Build 0)  -->
<svg version="1.0" id="katman_1" xmlns="http://www.w3.org/2000/svg" xmlns:xlink="http://www.w3.org/1999/xlink" x="0px" y="0px"
	 viewBox="0 0 560 400" style="enable-background:new 0 0 560 400;" xml:space="preserve">
<style type="text/css">
	.st0{fill:url(#SVGID_1_);}
	.st1{fill:#FFFFFF;}
</style>
<g transform="matrix(1.28755 0 0 1.28755 129.903 50)">
	
		<linearGradient id="SVGID_1_" gradientUnits="userSpaceOnUse" x1="-193.0589" y1="350.5857" x2="-192.0589" y2="350.5857" gradientTransform="matrix(0 299.9991 299.9991 0 -105058.7969 57917.5078)">
		<stop  offset="0" style="stop-color:#111D2E"/>
		<stop  offset="0.21" style="stop-color:#051839"/>
		<stop  offset="0.41" style="stop-color:#0A1B48"/>
		<stop  offset="0.58" style="stop-color:#132E62"/>
		<stop  offset="0.74" style="stop-color:#144B7E"/>
		<stop  offset="0.87" style="stop-color:#136497"/>
		<stop  offset="1" style="stop-color:#1387B8"/>
	</linearGradient>
	<path class="st0" d="M4.9,150c14.4,48,58.9,83,111.6,83c64.3,0,116.5-52.2,116.5-116.5C233,52.2,180.8,0,116.5,0
		C54.8,0,4.2,48,0.3,108.8C7.8,121.4,10.7,129.2,4.9,150L4.9,150z"/>
	<path class="st1" d="M110.5,87.3c0,0.2,0,0.4,0,0.6L82,129.3c-4.6-0.2-9.3,0.6-13.6,2.4c-1.9,0.8-3.8,1.8-5.5,2.9L0.3,108.8
		c0,0-1.4,23.8,4.6,41.6l44.3,18.3c2.2,9.9,9,18.6,19.1,22.8c16.4,6.9,35.4-1,42.2-17.4c1.8-4.3,2.6-8.8,2.5-13.3l40.8-29.1
		c0.3,0,0.7,0,1,0c24.4,0,44.2-19.9,44.2-44.3c0-24.4-19.8-44.3-44.2-44.3C130.4,43,110.5,62.9,110.5,87.3z M103.7,171.2
		c-5.3,12.7-19.9,18.7-32.6,13.4c-5.9-2.4-10.3-6.9-12.8-12.2l14.4,6c9.4,3.9,20.1-0.5,24-9.9c3.9-9.4-0.5-20.1-9.9-24l-14.9-6.2
		c5.7-2.2,12.3-2.3,18.4,0.3c6.2,2.6,10.9,7.4,13.5,13.5S106.2,165.1,103.7,171.2 M154.8,116.9c-16.2,0-29.5-13.2-29.5-29.5
		c0-16.3,13.2-29.5,29.5-29.5c16.3,0,29.5,13.3,29.5,29.5C184.2,103.6,171,116.9,154.8,116.9 M132.7,87.3c0-12.3,9.9-22.2,22.1-22.2
		c12.2,0,22.1,9.9,22.1,22.2c0,12.3-9.9,22.2-22.1,22.2C142.6,109.5,132.7,99.5,132.7,87.3z"/>
</g>
</svg>
